<svg width="67" height="66" viewBox="0 0 67 66" fill="none" xmlns="http://www.w3.org/2000/svg">
<rect x="5.6665" y="5" width="56" height="56" rx="28" fill="#E1F0C0"/>
<rect x="5.6665" y="5" width="56" height="56" rx="28" stroke="#F3F9E6" stroke-width="10"/>
<path d="M45.3333 31.9267V33C45.3319 35.5158 44.5173 37.9638 43.0109 39.9788C41.5045 41.9938 39.3872 43.4679 36.9746 44.1812C34.562 44.8945 31.9835 44.8089 29.6235 43.937C27.2636 43.0652 25.2488 41.4538 23.8795 39.3433C22.5101 37.2327 21.8598 34.7361 22.0253 32.2257C22.1908 29.7153 23.1634 27.3257 24.798 25.4133C26.4326 23.5008 28.6416 22.168 31.0956 21.6135C33.5495 21.0591 36.117 21.3127 38.415 22.3367M45.3333 23.6667L33.6667 35.345L30.1667 31.845" stroke="#6BA900" stroke-width="2.33333" stroke-linecap="round" stroke-linejoin="round"/>
</svg>
