<svg width="345" height="174" viewBox="0 0 345 174" fill="none" xmlns="http://www.w3.org/2000/svg">
<g filter="url(#filter0_d_45_16694)">
<rect x="52" y="20" width="263" height="70" rx="12" fill="white"/>
<rect x="52.5" y="20.5" width="262" height="69" rx="11.5" stroke="#EAECF0"/>
<path d="M70 51L80 56L90 51M70 46L80 51L90 46M80 36L70 41L80 46L90 41L80 36Z" stroke="#F79009" stroke-width="2" stroke-linecap="round" stroke-linejoin="round"/>
<path d="M108.825 49V47.4489L112.45 44.093C112.758 43.7947 113.016 43.5263 113.225 43.2876C113.437 43.049 113.598 42.8153 113.707 42.5866C113.817 42.3546 113.871 42.1044 113.871 41.8359C113.871 41.5376 113.804 41.2808 113.668 41.0653C113.532 40.8466 113.346 40.6792 113.111 40.5632C112.875 40.4439 112.609 40.3842 112.31 40.3842C111.999 40.3842 111.727 40.4472 111.495 40.5732C111.263 40.6991 111.084 40.8797 110.958 41.1151C110.832 41.3504 110.769 41.6304 110.769 41.9553H108.726C108.726 41.2891 108.877 40.7107 109.178 40.2202C109.48 39.7296 109.902 39.3501 110.446 39.0817C110.99 38.8132 111.616 38.679 112.325 38.679C113.054 38.679 113.689 38.8082 114.229 39.0668C114.773 39.322 115.196 39.6766 115.497 40.1307C115.799 40.5848 115.95 41.1051 115.95 41.6918C115.95 42.0762 115.873 42.4557 115.721 42.8303C115.572 43.2048 115.305 43.6207 114.92 44.0781C114.536 44.5322 113.994 45.0774 113.295 45.7138L111.808 47.1705V47.2401H116.084V49H108.825ZM117.271 47.2102V45.5149L121.521 38.8182H122.983V41.1648H122.118L119.438 45.4055V45.4851H125.479V47.2102H117.271ZM122.158 49V46.6932L122.198 45.9425V38.8182H124.216V49H122.158ZM131.368 38.3409L128.086 50.5312H126.262L129.543 38.3409H131.368ZM132.771 49L136.992 40.6477V40.5781H132.075V38.8182H139.219V40.603L134.993 49H132.771ZM143.994 49V38.8182H146.147V47.2251H150.512V49H143.994ZM155.348 49.1491C154.576 49.1491 153.908 48.9851 153.345 48.657C152.785 48.3255 152.352 47.8648 152.047 47.2749C151.742 46.6816 151.59 45.9938 151.59 45.2116C151.59 44.4228 151.742 43.7334 152.047 43.1435C152.352 42.5502 152.785 42.0895 153.345 41.7614C153.908 41.4299 154.576 41.2642 155.348 41.2642C156.12 41.2642 156.787 41.4299 157.347 41.7614C157.91 42.0895 158.344 42.5502 158.649 43.1435C158.954 43.7334 159.107 44.4228 159.107 45.2116C159.107 45.9938 158.954 46.6816 158.649 47.2749C158.344 47.8648 157.91 48.3255 157.347 48.657C156.787 48.9851 156.12 49.1491 155.348 49.1491ZM155.358 47.5085C155.709 47.5085 156.003 47.4091 156.238 47.2102C156.473 47.008 156.651 46.733 156.77 46.3849C156.893 46.0369 156.954 45.6409 156.954 45.1967C156.954 44.7526 156.893 44.3565 156.77 44.0085C156.651 43.6605 156.473 43.3854 156.238 43.1832C156.003 42.9811 155.709 42.88 155.358 42.88C155.003 42.88 154.705 42.9811 154.463 43.1832C154.225 43.3854 154.044 43.6605 153.921 44.0085C153.802 44.3565 153.742 44.7526 153.742 45.1967C153.742 45.6409 153.802 46.0369 153.921 46.3849C154.044 46.733 154.225 47.008 154.463 47.2102C154.705 47.4091 155.003 47.5085 155.358 47.5085ZM163.934 49.1491C163.152 49.1491 162.479 48.9834 161.916 48.652C161.356 48.3172 160.925 47.8532 160.623 47.2599C160.325 46.6667 160.176 45.9839 160.176 45.2116C160.176 44.4295 160.326 43.7434 160.628 43.1534C160.933 42.5601 161.365 42.0978 161.926 41.7663C162.486 41.4316 163.152 41.2642 163.924 41.2642C164.59 41.2642 165.174 41.3852 165.674 41.6271C166.175 41.8691 166.571 42.2088 166.862 42.6463C167.154 43.0838 167.315 43.5975 167.345 44.1875H165.346C165.29 43.8063 165.141 43.4998 164.899 43.2678C164.66 43.0324 164.347 42.9148 163.959 42.9148C163.631 42.9148 163.344 43.0043 163.099 43.1832C162.857 43.3589 162.668 43.6158 162.532 43.9538C162.396 44.2919 162.328 44.7012 162.328 45.1818C162.328 45.669 162.395 46.0833 162.527 46.4247C162.663 46.7661 162.854 47.0263 163.099 47.2053C163.344 47.3842 163.631 47.4737 163.959 47.4737C164.201 47.4737 164.418 47.424 164.61 47.3246C164.806 47.2251 164.967 47.081 165.093 46.892C165.222 46.6998 165.306 46.4695 165.346 46.201H167.345C167.311 46.7843 167.152 47.2981 166.867 47.7422C166.586 48.183 166.196 48.5277 165.699 48.7763C165.202 49.0249 164.614 49.1491 163.934 49.1491ZM170.878 49.1442C170.391 49.1442 169.957 49.0597 169.576 48.8906C169.194 48.7183 168.893 48.4647 168.671 48.13C168.452 47.7919 168.343 47.371 168.343 46.8672C168.343 46.4429 168.421 46.0866 168.576 45.7983C168.732 45.5099 168.944 45.2779 169.213 45.1023C169.481 44.9266 169.786 44.794 170.127 44.7045C170.472 44.6151 170.833 44.5521 171.211 44.5156C171.655 44.4692 172.013 44.4261 172.285 44.3864C172.557 44.3433 172.754 44.2803 172.877 44.1974C172.999 44.1146 173.061 43.992 173.061 43.8295V43.7997C173.061 43.4848 172.961 43.2412 172.762 43.0689C172.567 42.8965 172.288 42.8104 171.927 42.8104C171.546 42.8104 171.243 42.8949 171.017 43.0639C170.792 43.2296 170.643 43.4384 170.57 43.6903L168.611 43.5312C168.711 43.0672 168.906 42.6662 169.198 42.3281C169.489 41.9867 169.866 41.7249 170.326 41.5426C170.79 41.357 171.327 41.2642 171.937 41.2642C172.361 41.2642 172.767 41.3139 173.155 41.4134C173.546 41.5128 173.893 41.6669 174.194 41.8757C174.499 42.0845 174.739 42.353 174.915 42.6811C175.091 43.0059 175.179 43.3954 175.179 43.8494V49H173.17V47.9411H173.11C172.988 48.1797 172.824 48.3902 172.618 48.5724C172.413 48.7514 172.166 48.8923 171.877 48.995C171.589 49.0945 171.256 49.1442 170.878 49.1442ZM171.485 47.6825C171.796 47.6825 172.071 47.6212 172.31 47.4986C172.549 47.3726 172.736 47.2036 172.872 46.9915C173.008 46.7794 173.076 46.5391 173.076 46.2706V45.4602C173.009 45.5033 172.918 45.5431 172.802 45.5795C172.69 45.6127 172.562 45.6442 172.419 45.674C172.277 45.7005 172.134 45.7254 171.992 45.7486C171.849 45.7685 171.72 45.7867 171.604 45.8033C171.355 45.8397 171.138 45.8977 170.953 45.9773C170.767 46.0568 170.623 46.1645 170.52 46.3004C170.417 46.433 170.366 46.5987 170.366 46.7976C170.366 47.0859 170.471 47.3063 170.679 47.4588C170.891 47.608 171.16 47.6825 171.485 47.6825ZM178.94 38.8182V49H176.822V38.8182H178.94ZM190.23 43.5412L188.291 43.6605C188.258 43.4948 188.187 43.3456 188.077 43.2131C187.968 43.0772 187.824 42.9695 187.645 42.8899C187.469 42.8071 187.259 42.7656 187.013 42.7656C186.685 42.7656 186.409 42.8352 186.183 42.9744C185.958 43.1103 185.845 43.2926 185.845 43.5213C185.845 43.7036 185.918 43.8577 186.064 43.9837C186.21 44.1096 186.46 44.2107 186.815 44.2869L188.197 44.5653C188.939 44.7178 189.493 44.9631 189.857 45.3011C190.222 45.6392 190.404 46.0833 190.404 46.6335C190.404 47.134 190.257 47.5732 189.962 47.951C189.67 48.3288 189.269 48.6238 188.759 48.8359C188.251 49.0447 187.666 49.1491 187.004 49.1491C185.993 49.1491 185.187 48.9387 184.587 48.5178C183.991 48.0935 183.641 47.5168 183.538 46.7876L185.621 46.6783C185.684 46.9865 185.837 47.2218 186.079 47.3842C186.321 47.5433 186.631 47.6229 187.009 47.6229C187.38 47.6229 187.678 47.5516 187.903 47.4091C188.132 47.2633 188.248 47.076 188.251 46.8473C188.248 46.6551 188.167 46.4976 188.008 46.375C187.849 46.2491 187.603 46.1529 187.272 46.0866L185.95 45.8232C185.204 45.674 184.649 45.4155 184.284 45.0476C183.923 44.6797 183.742 44.2107 183.742 43.6406C183.742 43.1501 183.875 42.7275 184.14 42.3729C184.408 42.0182 184.785 41.7448 185.268 41.5526C185.756 41.3603 186.326 41.2642 186.979 41.2642C187.943 41.2642 188.702 41.468 189.256 41.8757C189.813 42.2834 190.137 42.8385 190.23 43.5412ZM196.635 45.7486V41.3636H198.753V49H196.719V47.6129H196.64C196.467 48.0604 196.181 48.42 195.78 48.6918C195.382 48.9635 194.896 49.0994 194.323 49.0994C193.813 49.0994 193.363 48.9834 192.976 48.7514C192.588 48.5194 192.285 48.1896 192.066 47.7621C191.85 47.3345 191.741 46.8224 191.738 46.2259V41.3636H193.856V45.848C193.859 46.2988 193.98 46.6551 194.219 46.9169C194.457 47.1787 194.777 47.3097 195.178 47.3097C195.433 47.3097 195.672 47.2517 195.894 47.1357C196.116 47.0163 196.295 46.8407 196.431 46.6087C196.57 46.3767 196.638 46.09 196.635 45.7486ZM200.447 51.8636V41.3636H202.535V42.6463H202.629C202.722 42.4408 202.856 42.232 203.032 42.0199C203.211 41.8045 203.443 41.6255 203.728 41.483C204.016 41.3371 204.374 41.2642 204.802 41.2642C205.359 41.2642 205.872 41.41 206.343 41.7017C206.814 41.9901 207.19 42.4259 207.472 43.0092C207.753 43.5893 207.894 44.3168 207.894 45.1918C207.894 46.0436 207.757 46.7628 207.482 47.3494C207.21 47.9328 206.839 48.3752 206.368 48.6768C205.901 48.9751 205.377 49.1243 204.797 49.1243C204.386 49.1243 204.036 49.0563 203.748 48.9205C203.463 48.7846 203.229 48.6139 203.047 48.4084C202.865 48.1996 202.725 47.9891 202.629 47.777H202.565V51.8636H200.447ZM202.52 45.1818C202.52 45.6359 202.583 46.032 202.709 46.37C202.835 46.7081 203.017 46.9716 203.256 47.1605C203.494 47.3461 203.784 47.4389 204.126 47.4389C204.47 47.4389 204.762 47.3445 205.001 47.1555C205.239 46.9633 205.42 46.6982 205.543 46.3601C205.669 46.0187 205.732 45.6259 205.732 45.1818C205.732 44.741 205.67 44.3532 205.548 44.0185C205.425 43.6837 205.244 43.4219 205.006 43.233C204.767 43.044 204.474 42.9496 204.126 42.9496C203.781 42.9496 203.489 43.0407 203.251 43.223C203.015 43.4053 202.835 43.6638 202.709 43.9986C202.583 44.3333 202.52 44.7277 202.52 45.1818ZM209.306 51.8636V41.3636H211.394V42.6463H211.489C211.581 42.4408 211.716 42.232 211.891 42.0199C212.07 41.8045 212.302 41.6255 212.587 41.483C212.876 41.3371 213.234 41.2642 213.661 41.2642C214.218 41.2642 214.732 41.41 215.202 41.7017C215.673 41.9901 216.049 42.4259 216.331 43.0092C216.613 43.5893 216.754 44.3168 216.754 45.1918C216.754 46.0436 216.616 46.7628 216.341 47.3494C216.069 47.9328 215.698 48.3752 215.227 48.6768C214.76 48.9751 214.236 49.1243 213.656 49.1243C213.245 49.1243 212.896 49.0563 212.607 48.9205C212.322 48.7846 212.089 48.6139 211.906 48.4084C211.724 48.1996 211.585 47.9891 211.489 47.777H211.424V51.8636H209.306ZM211.379 45.1818C211.379 45.6359 211.442 46.032 211.568 46.37C211.694 46.7081 211.876 46.9716 212.115 47.1605C212.354 47.3461 212.644 47.4389 212.985 47.4389C213.33 47.4389 213.621 47.3445 213.86 47.1555C214.099 46.9633 214.279 46.6982 214.402 46.3601C214.528 46.0187 214.591 45.6259 214.591 45.1818C214.591 44.741 214.53 44.3532 214.407 44.0185C214.284 43.6837 214.104 43.4219 213.865 43.233C213.626 43.044 213.333 42.9496 212.985 42.9496C212.64 42.9496 212.349 43.0407 212.11 43.223C211.875 43.4053 211.694 43.6638 211.568 43.9986C211.442 44.3333 211.379 44.7277 211.379 45.1818ZM221.616 49.1491C220.844 49.1491 220.176 48.9851 219.612 48.657C219.052 48.3255 218.62 47.8648 218.315 47.2749C218.01 46.6816 217.857 45.9938 217.857 45.2116C217.857 44.4228 218.01 43.7334 218.315 43.1435C218.62 42.5502 219.052 42.0895 219.612 41.7614C220.176 41.4299 220.844 41.2642 221.616 41.2642C222.388 41.2642 223.054 41.4299 223.614 41.7614C224.178 42.0895 224.612 42.5502 224.917 43.1435C225.222 43.7334 225.374 44.4228 225.374 45.2116C225.374 45.9938 225.222 46.6816 224.917 47.2749C224.612 47.8648 224.178 48.3255 223.614 48.657C223.054 48.9851 222.388 49.1491 221.616 49.1491ZM221.626 47.5085C221.977 47.5085 222.27 47.4091 222.506 47.2102C222.741 47.008 222.918 46.733 223.038 46.3849C223.16 46.0369 223.222 45.6409 223.222 45.1967C223.222 44.7526 223.16 44.3565 223.038 44.0085C222.918 43.6605 222.741 43.3854 222.506 43.1832C222.27 42.9811 221.977 42.88 221.626 42.88C221.271 42.88 220.973 42.9811 220.731 43.1832C220.492 43.3854 220.312 43.6605 220.189 44.0085C220.07 44.3565 220.01 44.7526 220.01 45.1967C220.01 45.6409 220.07 46.0369 220.189 46.3849C220.312 46.733 220.492 47.008 220.731 47.2102C220.973 47.4091 221.271 47.5085 221.626 47.5085ZM226.751 49V41.3636H228.805V42.696H228.884C229.023 42.2221 229.257 41.8641 229.585 41.6222C229.913 41.3769 230.291 41.2543 230.719 41.2543C230.825 41.2543 230.939 41.2609 231.062 41.2741C231.184 41.2874 231.292 41.3056 231.385 41.3288V43.2081C231.286 43.1783 231.148 43.1518 230.972 43.1286C230.797 43.1054 230.636 43.0938 230.49 43.0938C230.179 43.0938 229.9 43.1617 229.655 43.2976C229.413 43.4302 229.221 43.6158 229.078 43.8544C228.939 44.093 228.869 44.3681 228.869 44.6797V49H226.751ZM236.925 41.3636V42.9545H232.326V41.3636H236.925ZM233.37 39.5341H235.488V46.6534C235.488 46.849 235.518 47.0014 235.577 47.1108C235.637 47.2169 235.72 47.2914 235.826 47.3345C235.935 47.3776 236.061 47.3991 236.204 47.3991C236.303 47.3991 236.403 47.3909 236.502 47.3743C236.601 47.3544 236.678 47.3395 236.731 47.3295L237.064 48.9055C236.958 48.9387 236.809 48.9768 236.616 49.0199C236.424 49.0663 236.19 49.0945 235.915 49.1044C235.405 49.1243 234.957 49.0563 234.573 48.9006C234.192 48.7448 233.895 48.5028 233.683 48.1747C233.471 47.8466 233.367 47.4323 233.37 46.9318V39.5341Z" fill="#1D2939"/>
<path d="M110.642 71L108.256 62.2727H109.33L111.153 69.3807H111.239L113.097 62.2727H114.29L116.148 69.3807H116.233L118.057 62.2727H119.131L116.744 71H115.653L113.727 64.0455H113.659L111.733 71H110.642ZM122.446 71.1364C121.815 71.1364 121.271 70.9972 120.814 70.7188C120.359 70.4375 120.009 70.0455 119.761 69.5426C119.517 69.0369 119.395 68.4489 119.395 67.7784C119.395 67.108 119.517 66.517 119.761 66.0057C120.009 65.4915 120.352 65.0909 120.793 64.804C121.236 64.5142 121.753 64.3693 122.344 64.3693C122.685 64.3693 123.021 64.4261 123.354 64.5398C123.686 64.6534 123.989 64.8381 124.261 65.0938C124.534 65.3466 124.751 65.6818 124.913 66.0994C125.075 66.517 125.156 67.0312 125.156 67.642V68.0682H120.111V67.1989H124.134C124.134 66.8295 124.06 66.5 123.912 66.2102C123.767 65.9205 123.56 65.6918 123.29 65.5241C123.023 65.3565 122.707 65.2727 122.344 65.2727C121.943 65.2727 121.597 65.3722 121.304 65.571C121.014 65.767 120.791 66.0227 120.635 66.3381C120.479 66.6534 120.401 66.9915 120.401 67.3523V67.9318C120.401 68.4261 120.486 68.8452 120.656 69.1889C120.83 69.5298 121.07 69.7898 121.376 69.9688C121.683 70.1449 122.04 70.233 122.446 70.233C122.71 70.233 122.949 70.196 123.162 70.1222C123.378 70.0455 123.564 69.9318 123.72 69.7812C123.876 69.6278 123.997 69.4375 124.082 69.2102L125.054 69.483C124.952 69.8125 124.78 70.1023 124.538 70.3523C124.297 70.5994 123.999 70.7926 123.643 70.9318C123.288 71.0682 122.889 71.1364 122.446 71.1364ZM131.987 71.1534C131.572 71.1534 131.196 71.0753 130.858 70.919C130.52 70.7599 130.251 70.5312 130.053 70.233C129.854 69.9318 129.754 69.5682 129.754 69.142C129.754 68.767 129.828 68.4631 129.976 68.2301C130.124 67.9943 130.321 67.8097 130.568 67.6761C130.815 67.5426 131.088 67.4432 131.386 67.3778C131.688 67.3097 131.99 67.2557 132.294 67.2159C132.692 67.1648 133.014 67.1264 133.261 67.1009C133.511 67.0724 133.693 67.0256 133.807 66.9602C133.923 66.8949 133.982 66.7812 133.982 66.6193V66.5852C133.982 66.1648 133.866 65.8381 133.636 65.6051C133.409 65.3722 133.064 65.2557 132.601 65.2557C132.121 65.2557 131.744 65.3608 131.472 65.571C131.199 65.7812 131.007 66.0057 130.896 66.2443L129.942 65.9034C130.112 65.5057 130.339 65.196 130.624 64.9744C130.911 64.75 131.223 64.5937 131.561 64.5057C131.902 64.4148 132.237 64.3693 132.567 64.3693C132.777 64.3693 133.018 64.3949 133.291 64.446C133.567 64.4943 133.832 64.5952 134.088 64.7486C134.347 64.902 134.561 65.1335 134.732 65.4432C134.902 65.7528 134.987 66.1676 134.987 66.6875V71H133.982V70.1136H133.93C133.862 70.2557 133.749 70.4077 133.589 70.5696C133.43 70.7315 133.219 70.8693 132.955 70.983C132.69 71.0966 132.368 71.1534 131.987 71.1534ZM132.141 70.25C132.538 70.25 132.874 70.1719 133.146 70.0156C133.422 69.8594 133.629 69.6577 133.768 69.4105C133.911 69.1634 133.982 68.9034 133.982 68.6307V67.7102C133.939 67.7614 133.845 67.8082 133.7 67.8509C133.558 67.8906 133.393 67.9261 133.206 67.9574C133.021 67.9858 132.841 68.0114 132.665 68.0341C132.491 68.054 132.351 68.071 132.243 68.0852C131.982 68.1193 131.737 68.1747 131.51 68.2514C131.286 68.3253 131.104 68.4375 130.964 68.5881C130.828 68.7358 130.76 68.9375 130.76 69.1932C130.76 69.5426 130.889 69.8068 131.148 69.9858C131.409 70.1619 131.74 70.25 132.141 70.25ZM141.459 65.9205L140.556 66.1761C140.499 66.0256 140.415 65.8793 140.304 65.7372C140.196 65.5923 140.049 65.473 139.861 65.3793C139.674 65.2855 139.434 65.2386 139.141 65.2386C138.74 65.2386 138.407 65.331 138.14 65.5156C137.875 65.6974 137.743 65.929 137.743 66.2102C137.743 66.4602 137.834 66.6577 138.016 66.8026C138.198 66.9474 138.482 67.0682 138.868 67.1648L139.84 67.4034C140.425 67.5455 140.861 67.7628 141.148 68.0554C141.435 68.3452 141.578 68.7187 141.578 69.1761C141.578 69.5511 141.471 69.8864 141.255 70.1818C141.042 70.4773 140.743 70.7102 140.36 70.8807C139.976 71.0511 139.53 71.1364 139.022 71.1364C138.354 71.1364 137.801 70.9915 137.364 70.7017C136.926 70.4119 136.65 69.9886 136.533 69.4318L137.488 69.1932C137.578 69.5455 137.75 69.8097 138.003 69.9858C138.259 70.1619 138.593 70.25 139.005 70.25C139.473 70.25 139.846 70.1506 140.121 69.9517C140.4 69.75 140.539 69.5085 140.539 69.2273C140.539 69 140.459 68.8097 140.3 68.6562C140.141 68.5 139.897 68.3835 139.567 68.3068L138.476 68.0511C137.877 67.9091 137.436 67.6889 137.155 67.3906C136.877 67.0895 136.738 66.7131 136.738 66.2614C136.738 65.892 136.841 65.5653 137.049 65.2812C137.259 64.9972 137.544 64.7741 137.905 64.6122C138.269 64.4503 138.681 64.3693 139.141 64.3693C139.789 64.3693 140.297 64.5114 140.667 64.7955C141.039 65.0795 141.303 65.4545 141.459 65.9205ZM147.729 65.9205L146.825 66.1761C146.768 66.0256 146.685 65.8793 146.574 65.7372C146.466 65.5923 146.318 65.473 146.131 65.3793C145.943 65.2855 145.703 65.2386 145.411 65.2386C145.01 65.2386 144.676 65.331 144.409 65.5156C144.145 65.6974 144.013 65.929 144.013 66.2102C144.013 66.4602 144.104 66.6577 144.286 66.8026C144.467 66.9474 144.751 67.0682 145.138 67.1648L146.109 67.4034C146.695 67.5455 147.131 67.7628 147.418 68.0554C147.705 68.3452 147.848 68.7187 147.848 69.1761C147.848 69.5511 147.74 69.8864 147.524 70.1818C147.311 70.4773 147.013 70.7102 146.629 70.8807C146.246 71.0511 145.8 71.1364 145.291 71.1364C144.624 71.1364 144.071 70.9915 143.634 70.7017C143.196 70.4119 142.919 69.9886 142.803 69.4318L143.757 69.1932C143.848 69.5455 144.02 69.8097 144.273 69.9858C144.528 70.1619 144.862 70.25 145.274 70.25C145.743 70.25 146.115 70.1506 146.391 69.9517C146.669 69.75 146.808 69.5085 146.808 69.2273C146.808 69 146.729 68.8097 146.57 68.6562C146.411 68.5 146.166 68.3835 145.837 68.3068L144.746 68.0511C144.146 67.9091 143.706 67.6889 143.425 67.3906C143.146 67.0895 143.007 66.7131 143.007 66.2614C143.007 65.892 143.111 65.5653 143.318 65.2812C143.528 64.9972 143.814 64.7741 144.175 64.6122C144.538 64.4503 144.95 64.3693 145.411 64.3693C146.058 64.3693 146.567 64.5114 146.936 64.7955C147.308 65.0795 147.572 65.4545 147.729 65.9205ZM149.362 71V64.4545H150.368V71H149.362ZM149.873 63.3636C149.677 63.3636 149.508 63.2969 149.366 63.1634C149.227 63.0298 149.157 62.8693 149.157 62.6818C149.157 62.4943 149.227 62.3338 149.366 62.2003C149.508 62.0668 149.677 62 149.873 62C150.069 62 150.237 62.0668 150.376 62.2003C150.518 62.3338 150.589 62.4943 150.589 62.6818C150.589 62.8693 150.518 63.0298 150.376 63.1634C150.237 63.2969 150.069 63.3636 149.873 63.3636ZM156.846 65.9205L155.942 66.1761C155.886 66.0256 155.802 65.8793 155.691 65.7372C155.583 65.5923 155.435 65.473 155.248 65.3793C155.06 65.2855 154.82 65.2386 154.528 65.2386C154.127 65.2386 153.793 65.331 153.526 65.5156C153.262 65.6974 153.13 65.929 153.13 66.2102C153.13 66.4602 153.221 66.6577 153.403 66.8026C153.585 66.9474 153.869 67.0682 154.255 67.1648L155.227 67.4034C155.812 67.5455 156.248 67.7628 156.535 68.0554C156.822 68.3452 156.965 68.7187 156.965 69.1761C156.965 69.5511 156.857 69.8864 156.641 70.1818C156.428 70.4773 156.13 70.7102 155.746 70.8807C155.363 71.0511 154.917 71.1364 154.408 71.1364C153.741 71.1364 153.188 70.9915 152.751 70.7017C152.313 70.4119 152.036 69.9886 151.92 69.4318L152.874 69.1932C152.965 69.5455 153.137 69.8097 153.39 69.9858C153.646 70.1619 153.979 70.25 154.391 70.25C154.86 70.25 155.232 70.1506 155.508 69.9517C155.786 69.75 155.925 69.5085 155.925 69.2273C155.925 69 155.846 68.8097 155.687 68.6562C155.528 68.5 155.283 68.3835 154.954 68.3068L153.863 68.0511C153.263 67.9091 152.823 67.6889 152.542 67.3906C152.263 67.0895 152.124 66.7131 152.124 66.2614C152.124 65.892 152.228 65.5653 152.435 65.2812C152.646 64.9972 152.931 64.7741 153.292 64.6122C153.656 64.4503 154.067 64.3693 154.528 64.3693C155.175 64.3693 155.684 64.5114 156.053 64.7955C156.425 65.0795 156.69 65.4545 156.846 65.9205ZM161.326 64.4545V65.3068H157.934V64.4545H161.326ZM158.922 62.8864H159.928V69.125C159.928 69.4091 159.969 69.6222 160.051 69.7642C160.137 69.9034 160.245 69.9972 160.375 70.0455C160.509 70.0909 160.65 70.1136 160.797 70.1136C160.908 70.1136 160.999 70.108 161.07 70.0966C161.141 70.0824 161.198 70.071 161.24 70.0625L161.445 70.9659C161.377 70.9915 161.282 71.017 161.159 71.0426C161.037 71.071 160.882 71.0852 160.695 71.0852C160.411 71.0852 160.132 71.0241 159.86 70.902C159.59 70.7798 159.365 70.5938 159.186 70.3438C159.01 70.0938 158.922 69.7784 158.922 69.3977V62.8864ZM166.861 73.4545C166.691 73.4545 166.539 73.4403 166.405 73.4119C166.272 73.3864 166.179 73.3608 166.128 73.3352L166.384 72.4489C166.628 72.5114 166.844 72.5341 167.032 72.517C167.219 72.5 167.385 72.4162 167.53 72.2656C167.678 72.1179 167.813 71.8778 167.935 71.5455L168.123 71.0341L165.702 64.4545H166.793L168.6 69.6705H168.668L170.475 64.4545H171.566L168.787 71.9545C168.662 72.2926 168.507 72.5724 168.323 72.794C168.138 73.0185 167.924 73.1847 167.679 73.2926C167.438 73.4006 167.165 73.4545 166.861 73.4545ZM175.318 71.1364C174.727 71.1364 174.208 70.9957 173.762 70.7145C173.319 70.4332 172.973 70.0398 172.723 69.5341C172.475 69.0284 172.352 68.4375 172.352 67.7614C172.352 67.0795 172.475 66.4844 172.723 65.9759C172.973 65.4673 173.319 65.0724 173.762 64.7912C174.208 64.5099 174.727 64.3693 175.318 64.3693C175.909 64.3693 176.426 64.5099 176.869 64.7912C177.315 65.0724 177.662 65.4673 177.909 65.9759C178.159 66.4844 178.284 67.0795 178.284 67.7614C178.284 68.4375 178.159 69.0284 177.909 69.5341C177.662 70.0398 177.315 70.4332 176.869 70.7145C176.426 70.9957 175.909 71.1364 175.318 71.1364ZM175.318 70.233C175.767 70.233 176.136 70.1179 176.426 69.8878C176.716 69.6577 176.93 69.3551 177.069 68.9801C177.208 68.6051 177.278 68.1989 177.278 67.7614C177.278 67.3239 177.208 66.9162 177.069 66.5384C176.93 66.1605 176.716 65.8551 176.426 65.6222C176.136 65.3892 175.767 65.2727 175.318 65.2727C174.869 65.2727 174.5 65.3892 174.21 65.6222C173.92 65.8551 173.706 66.1605 173.566 66.5384C173.427 66.9162 173.358 67.3239 173.358 67.7614C173.358 68.1989 173.427 68.6051 173.566 68.9801C173.706 69.3551 173.92 69.6577 174.21 69.8878C174.5 70.1179 174.869 70.233 175.318 70.233ZM183.944 68.3239V64.4545H184.95V71H183.944V69.892H183.876C183.722 70.2244 183.484 70.5071 183.16 70.7401C182.836 70.9702 182.427 71.0852 181.933 71.0852C181.523 71.0852 181.16 70.9957 180.842 70.8168C180.523 70.6349 180.273 70.3622 180.092 69.9986C179.91 69.6321 179.819 69.1705 179.819 68.6136V64.4545H180.825V68.5455C180.825 69.0227 180.958 69.4034 181.225 69.6875C181.495 69.9716 181.839 70.1136 182.256 70.1136C182.506 70.1136 182.761 70.0497 183.019 69.9219C183.281 69.794 183.499 69.598 183.675 69.3338C183.854 69.0696 183.944 68.733 183.944 68.3239ZM192.826 71.1364C192.235 71.1364 191.716 70.9957 191.27 70.7145C190.827 70.4332 190.48 70.0398 190.23 69.5341C189.983 69.0284 189.86 68.4375 189.86 67.7614C189.86 67.0795 189.983 66.4844 190.23 65.9759C190.48 65.4673 190.827 65.0724 191.27 64.7912C191.716 64.5099 192.235 64.3693 192.826 64.3693C193.417 64.3693 193.934 64.5099 194.377 64.7912C194.823 65.0724 195.169 65.4673 195.417 65.9759C195.667 66.4844 195.792 67.0795 195.792 67.7614C195.792 68.4375 195.667 69.0284 195.417 69.5341C195.169 70.0398 194.823 70.4332 194.377 70.7145C193.934 70.9957 193.417 71.1364 192.826 71.1364ZM192.826 70.233C193.275 70.233 193.644 70.1179 193.934 69.8878C194.223 69.6577 194.438 69.3551 194.577 68.9801C194.716 68.6051 194.786 68.1989 194.786 67.7614C194.786 67.3239 194.716 66.9162 194.577 66.5384C194.438 66.1605 194.223 65.8551 193.934 65.6222C193.644 65.3892 193.275 65.2727 192.826 65.2727C192.377 65.2727 192.007 65.3892 191.718 65.6222C191.428 65.8551 191.213 66.1605 191.074 66.5384C190.935 66.9162 190.865 67.3239 190.865 67.7614C190.865 68.1989 190.935 68.6051 191.074 68.9801C191.213 69.3551 191.428 69.6577 191.718 69.8878C192.007 70.1179 192.377 70.233 192.826 70.233ZM198.332 67.0625V71H197.327V64.4545H198.298V65.4773H198.384C198.537 65.1449 198.77 64.8778 199.082 64.6761C199.395 64.4716 199.798 64.3693 200.293 64.3693C200.736 64.3693 201.124 64.4602 201.456 64.642C201.788 64.821 202.047 65.0938 202.232 65.4602C202.416 65.8239 202.509 66.2841 202.509 66.8409V71H201.503V66.9091C201.503 66.3949 201.369 65.9943 201.102 65.7074C200.835 65.4176 200.469 65.2727 200.003 65.2727C199.682 65.2727 199.395 65.3423 199.142 65.4815C198.892 65.6207 198.695 65.8239 198.55 66.0909C198.405 66.358 198.332 66.6818 198.332 67.0625ZM210.466 71.1364C209.835 71.1364 209.291 70.9972 208.833 70.7188C208.379 70.4375 208.028 70.0455 207.781 69.5426C207.537 69.0369 207.414 68.4489 207.414 67.7784C207.414 67.108 207.537 66.517 207.781 66.0057C208.028 65.4915 208.372 65.0909 208.812 64.804C209.255 64.5142 209.772 64.3693 210.363 64.3693C210.704 64.3693 211.041 64.4261 211.373 64.5398C211.706 64.6534 212.008 64.8381 212.281 65.0938C212.554 65.3466 212.771 65.6818 212.933 66.0994C213.095 66.517 213.176 67.0312 213.176 67.642V68.0682H208.13V67.1989H212.153C212.153 66.8295 212.079 66.5 211.931 66.2102C211.787 65.9205 211.579 65.6918 211.309 65.5241C211.042 65.3565 210.727 65.2727 210.363 65.2727C209.963 65.2727 209.616 65.3722 209.324 65.571C209.034 65.767 208.811 66.0227 208.654 66.3381C208.498 66.6534 208.42 66.9915 208.42 67.3523V67.9318C208.42 68.4261 208.505 68.8452 208.676 69.1889C208.849 69.5298 209.089 69.7898 209.396 69.9688C209.703 70.1449 210.059 70.233 210.466 70.233C210.73 70.233 210.968 70.196 211.181 70.1222C211.397 70.0455 211.583 69.9318 211.74 69.7812C211.896 69.6278 212.017 69.4375 212.102 69.2102L213.074 69.483C212.971 69.8125 212.799 70.1023 212.558 70.3523C212.316 70.5994 212.018 70.7926 211.663 70.9318C211.308 71.0682 210.909 71.1364 210.466 71.1364ZM219.859 64.4545L217.438 71H216.415L213.995 64.4545H215.086L216.893 69.6705H216.961L218.768 64.4545H219.859ZM223.696 71.1364C223.065 71.1364 222.521 70.9972 222.064 70.7188C221.609 70.4375 221.259 70.0455 221.011 69.5426C220.767 69.0369 220.645 68.4489 220.645 67.7784C220.645 67.108 220.767 66.517 221.011 66.0057C221.259 65.4915 221.602 65.0909 222.043 64.804C222.486 64.5142 223.003 64.3693 223.594 64.3693C223.935 64.3693 224.271 64.4261 224.604 64.5398C224.936 64.6534 225.239 64.8381 225.511 65.0938C225.784 65.3466 226.001 65.6818 226.163 66.0994C226.325 66.517 226.406 67.0312 226.406 67.642V68.0682H221.361V67.1989H225.384C225.384 66.8295 225.31 66.5 225.162 66.2102C225.017 65.9205 224.81 65.6918 224.54 65.5241C224.273 65.3565 223.957 65.2727 223.594 65.2727C223.193 65.2727 222.847 65.3722 222.554 65.571C222.264 65.767 222.041 66.0227 221.885 66.3381C221.729 66.6534 221.651 66.9915 221.651 67.3523V67.9318C221.651 68.4261 221.736 68.8452 221.906 69.1889C222.08 69.5298 222.32 69.7898 222.626 69.9688C222.933 70.1449 223.29 70.233 223.696 70.233C223.96 70.233 224.199 70.196 224.412 70.1222C224.628 70.0455 224.814 69.9318 224.97 69.7812C225.126 69.6278 225.247 69.4375 225.332 69.2102L226.304 69.483C226.202 69.8125 226.03 70.1023 225.788 70.3523C225.547 70.5994 225.249 70.7926 224.893 70.9318C224.538 71.0682 224.139 71.1364 223.696 71.1364ZM227.936 71V64.4545H228.908V65.4432H228.976C229.095 65.1193 229.311 64.8565 229.624 64.6548C229.936 64.4531 230.288 64.3523 230.68 64.3523C230.754 64.3523 230.847 64.3537 230.957 64.3565C231.068 64.3594 231.152 64.3636 231.209 64.3693V65.392C231.175 65.3835 231.097 65.3707 230.974 65.3537C230.855 65.3338 230.729 65.3239 230.595 65.3239C230.277 65.3239 229.993 65.3906 229.743 65.5241C229.496 65.6548 229.3 65.8366 229.155 66.0696C229.013 66.2997 228.942 66.5625 228.942 66.858V71H227.936ZM233.248 73.4545C233.077 73.4545 232.925 73.4403 232.792 73.4119C232.658 73.3864 232.566 73.3608 232.515 73.3352L232.771 72.4489C233.015 72.5114 233.231 72.5341 233.418 72.517C233.606 72.5 233.772 72.4162 233.917 72.2656C234.065 72.1179 234.2 71.8778 234.322 71.5455L234.509 71.0341L232.089 64.4545H233.18L234.987 69.6705H235.055L236.862 64.4545H237.952L235.174 71.9545C235.049 72.2926 234.894 72.5724 234.71 72.794C234.525 73.0185 234.31 73.1847 234.066 73.2926C233.825 73.4006 233.552 73.4545 233.248 73.4545ZM247.291 65.9205L246.388 66.1761C246.331 66.0256 246.247 65.8793 246.136 65.7372C246.028 65.5923 245.881 65.473 245.693 65.3793C245.506 65.2855 245.266 65.2386 244.973 65.2386C244.572 65.2386 244.239 65.331 243.972 65.5156C243.707 65.6974 243.575 65.929 243.575 66.2102C243.575 66.4602 243.666 66.6577 243.848 66.8026C244.03 66.9474 244.314 67.0682 244.7 67.1648L245.672 67.4034C246.257 67.5455 246.693 67.7628 246.98 68.0554C247.267 68.3452 247.411 68.7187 247.411 69.1761C247.411 69.5511 247.303 69.8864 247.087 70.1818C246.874 70.4773 246.575 70.7102 246.192 70.8807C245.808 71.0511 245.362 71.1364 244.854 71.1364C244.186 71.1364 243.634 70.9915 243.196 70.7017C242.759 70.4119 242.482 69.9886 242.365 69.4318L243.32 69.1932C243.411 69.5455 243.582 69.8097 243.835 69.9858C244.091 70.1619 244.425 70.25 244.837 70.25C245.305 70.25 245.678 70.1506 245.953 69.9517C246.232 69.75 246.371 69.5085 246.371 69.2273C246.371 69 246.291 68.8097 246.132 68.6562C245.973 68.5 245.729 68.3835 245.399 68.3068L244.308 68.0511C243.709 67.9091 243.268 67.6889 242.987 67.3906C242.709 67.0895 242.57 66.7131 242.57 66.2614C242.57 65.892 242.673 65.5653 242.881 65.2812C243.091 64.9972 243.376 64.7741 243.737 64.6122C244.101 64.4503 244.513 64.3693 244.973 64.3693C245.621 64.3693 246.129 64.5114 246.499 64.7955C246.871 65.0795 247.135 65.4545 247.291 65.9205ZM248.924 71V64.4545H249.93V71H248.924ZM249.436 63.3636C249.24 63.3636 249.071 63.2969 248.929 63.1634C248.789 63.0298 248.72 62.8693 248.72 62.6818C248.72 62.4943 248.789 62.3338 248.929 62.2003C249.071 62.0668 249.24 62 249.436 62C249.632 62 249.799 62.0668 249.939 62.2003C250.081 62.3338 250.152 62.4943 250.152 62.6818C250.152 62.8693 250.081 63.0298 249.939 63.1634C249.799 63.2969 249.632 63.3636 249.436 63.3636ZM254.244 71.1364C253.698 71.1364 253.217 70.9986 252.799 70.723C252.381 70.4446 252.055 70.0526 251.819 69.5469C251.583 69.0384 251.465 68.4375 251.465 67.7443C251.465 67.0568 251.583 66.4602 251.819 65.9545C252.055 65.4489 252.383 65.0582 252.803 64.7827C253.224 64.5071 253.71 64.3693 254.261 64.3693C254.687 64.3693 255.023 64.4403 255.271 64.5824C255.521 64.7216 255.711 64.8807 255.842 65.0597C255.975 65.2358 256.079 65.3807 256.153 65.4943H256.238V62.2727H257.244V71H256.272V69.9943H256.153C256.079 70.1136 255.974 70.2642 255.837 70.446C255.701 70.625 255.506 70.7855 255.254 70.9276C255.001 71.0668 254.664 71.1364 254.244 71.1364ZM254.38 70.233C254.783 70.233 255.124 70.1278 255.403 69.9176C255.681 69.7045 255.893 69.4105 256.038 69.0355C256.183 68.6577 256.255 68.2216 256.255 67.7273C256.255 67.2386 256.184 66.8111 256.042 66.4446C255.9 66.0753 255.69 65.7884 255.411 65.5838C255.133 65.3764 254.789 65.2727 254.38 65.2727C253.954 65.2727 253.599 65.3821 253.315 65.6009C253.033 65.8168 252.822 66.1108 252.68 66.483C252.54 66.8523 252.471 67.267 252.471 67.7273C252.471 68.1932 252.542 68.6165 252.684 68.9972C252.829 69.375 253.042 69.6761 253.323 69.9006C253.607 70.1222 253.96 70.233 254.38 70.233ZM261.969 71.1364C261.339 71.1364 260.795 70.9972 260.337 70.7188C259.883 70.4375 259.532 70.0455 259.285 69.5426C259.04 69.0369 258.918 68.4489 258.918 67.7784C258.918 67.108 259.04 66.517 259.285 66.0057C259.532 65.4915 259.876 65.0909 260.316 64.804C260.759 64.5142 261.276 64.3693 261.867 64.3693C262.208 64.3693 262.545 64.4261 262.877 64.5398C263.21 64.6534 263.512 64.8381 263.785 65.0938C264.058 65.3466 264.275 65.6818 264.437 66.0994C264.599 66.517 264.68 67.0312 264.68 67.642V68.0682H259.634V67.1989H263.657C263.657 66.8295 263.583 66.5 263.435 66.2102C263.29 65.9205 263.083 65.6918 262.813 65.5241C262.546 65.3565 262.231 65.2727 261.867 65.2727C261.467 65.2727 261.12 65.3722 260.827 65.571C260.538 65.767 260.315 66.0227 260.158 66.3381C260.002 66.6534 259.924 66.9915 259.924 67.3523V67.9318C259.924 68.4261 260.009 68.8452 260.18 69.1889C260.353 69.5298 260.593 69.7898 260.9 69.9688C261.207 70.1449 261.563 70.233 261.969 70.233C262.234 70.233 262.472 70.196 262.685 70.1222C262.901 70.0455 263.087 69.9318 263.244 69.7812C263.4 69.6278 263.521 69.4375 263.606 69.2102L264.577 69.483C264.475 69.8125 264.303 70.1023 264.062 70.3523C263.82 70.5994 263.522 70.7926 263.167 70.9318C262.812 71.0682 262.413 71.1364 261.969 71.1364Z" fill="#475467"/>
</g>
<defs>
<filter id="filter0_d_45_16694" x="0" y="0" width="367" height="174" filterUnits="userSpaceOnUse" color-interpolation-filters="sRGB">
<feFlood flood-opacity="0" result="BackgroundImageFix"/>
<feColorMatrix in="SourceAlpha" type="matrix" values="0 0 0 0 0 0 0 0 0 0 0 0 0 0 0 0 0 0 127 0" result="hardAlpha"/>
<feMorphology radius="12" operator="erode" in="SourceAlpha" result="effect1_dropShadow_45_16694"/>
<feOffset dy="32"/>
<feGaussianBlur stdDeviation="32"/>
<feColorMatrix type="matrix" values="0 0 0 0 0.0625882 0 0 0 0 0.0926346 0 0 0 0 0.15702 0 0 0 0.14 0"/>
<feBlend mode="normal" in2="BackgroundImageFix" result="effect1_dropShadow_45_16694"/>
<feBlend mode="normal" in="SourceGraphic" in2="effect1_dropShadow_45_16694" result="shape"/>
</filter>
</defs>
</svg>
