<svg width="367" height="210" viewBox="0 0 367 210" fill="none" xmlns="http://www.w3.org/2000/svg">
<g filter="url(#filter0_d_45_15618)">
<rect x="52" y="20" width="263" height="106" rx="12" fill="white"/>
<rect x="52.5" y="20.5" width="262" height="105" rx="11.5" stroke="#EAECF0"/>
<path d="M81.3248 44.6752L73.4406 52.5594M74.2915 46.8375L70.4297 45.9253C70.0048 45.825 69.8553 45.2975 70.1631 44.9886L73.2343 41.9174C73.4406 41.7111 73.7205 41.5929 74.0138 41.5907L77.4764 41.5606M81.8377 37.5984C84.4149 39.3559 86.6441 41.5851 88.4016 44.1623M79.1614 51.7085L80.0736 55.5703C80.1739 55.9952 80.7014 56.1447 81.0103 55.8369L84.0814 52.7657C84.2878 52.5594 84.406 52.2795 84.4082 51.9862L84.4383 48.5236M89.0629 42.3501L89.9639 38.0144C90.2093 36.8345 89.1655 35.7907 87.9856 36.0361L83.6499 36.9371C82.373 37.2025 81.2021 37.8348 80.281 38.7571L76.7236 42.3133C75.3665 43.6705 74.4833 45.4302 74.2045 47.3293L74.1922 47.4107C74.016 48.6229 74.4219 49.8462 75.2873 50.7127C76.1527 51.5781 77.3771 51.984 78.5893 51.8067L78.6707 51.7944C80.5698 51.5167 82.3295 50.6324 83.6867 49.2753L87.2429 45.719C88.1652 44.7979 88.7975 43.627 89.0629 42.3501Z" stroke="#93CD00" stroke-width="2" stroke-linecap="round" stroke-linejoin="round"/>
<path d="M108.885 49V38.8182H115.626V40.593H111.038V43.0192H115.179V44.794H111.038V49H108.885ZM116.912 49V41.3636H118.965V42.696H119.044C119.184 42.2221 119.417 41.8641 119.745 41.6222C120.074 41.3769 120.451 41.2543 120.879 41.2543C120.985 41.2543 121.099 41.2609 121.222 41.2741C121.345 41.2874 121.452 41.3056 121.545 41.3288V43.2081C121.446 43.1783 121.308 43.1518 121.132 43.1286C120.957 43.1054 120.796 43.0938 120.65 43.0938C120.339 43.0938 120.06 43.1617 119.815 43.2976C119.573 43.4302 119.381 43.6158 119.238 43.8544C119.099 44.093 119.029 44.3681 119.029 44.6797V49H116.912ZM125.765 49.1491C124.979 49.1491 124.303 48.9901 123.736 48.6719C123.173 48.3504 122.739 47.8963 122.434 47.3097C122.129 46.7197 121.976 46.022 121.976 45.2166C121.976 44.4311 122.129 43.7417 122.434 43.1484C122.739 42.5552 123.168 42.0928 123.721 41.7614C124.278 41.4299 124.931 41.2642 125.68 41.2642C126.184 41.2642 126.653 41.3454 127.087 41.5078C127.525 41.6669 127.906 41.9072 128.231 42.2287C128.559 42.5502 128.814 42.9545 128.996 43.4418C129.179 43.9257 129.27 44.4924 129.27 45.142V45.7237H122.822V44.4112H127.276C127.276 44.1063 127.21 43.8362 127.077 43.6009C126.945 43.3655 126.761 43.1816 126.525 43.049C126.293 42.9131 126.023 42.8452 125.715 42.8452C125.394 42.8452 125.108 42.9197 124.86 43.0689C124.615 43.2147 124.422 43.4119 124.283 43.6605C124.144 43.9058 124.073 44.1792 124.069 44.4808V45.7287C124.069 46.1065 124.139 46.433 124.278 46.7081C124.421 46.9832 124.621 47.1953 124.88 47.3445C125.138 47.4936 125.445 47.5682 125.8 47.5682C126.035 47.5682 126.25 47.535 126.446 47.4688C126.641 47.4025 126.809 47.303 126.948 47.1705C127.087 47.0379 127.193 46.8755 127.266 46.6832L129.225 46.8125C129.126 47.2831 128.922 47.6941 128.613 48.0455C128.309 48.3935 127.914 48.6652 127.43 48.8608C126.95 49.053 126.394 49.1491 125.765 49.1491ZM134.132 49.1491C133.346 49.1491 132.67 48.9901 132.104 48.6719C131.54 48.3504 131.106 47.8963 130.801 47.3097C130.496 46.7197 130.344 46.022 130.344 45.2166C130.344 44.4311 130.496 43.7417 130.801 43.1484C131.106 42.5552 131.535 42.0928 132.089 41.7614C132.645 41.4299 133.298 41.2642 134.047 41.2642C134.551 41.2642 135.02 41.3454 135.454 41.5078C135.892 41.6669 136.273 41.9072 136.598 42.2287C136.926 42.5502 137.181 42.9545 137.363 43.4418C137.546 43.9257 137.637 44.4924 137.637 45.142V45.7237H131.189V44.4112H135.643C135.643 44.1063 135.577 43.8362 135.444 43.6009C135.312 43.3655 135.128 43.1816 134.893 43.049C134.661 42.9131 134.39 42.8452 134.082 42.8452C133.761 42.8452 133.476 42.9197 133.227 43.0689C132.982 43.2147 132.79 43.4119 132.65 43.6605C132.511 43.9058 132.44 44.1792 132.437 44.4808V45.7287C132.437 46.1065 132.506 46.433 132.645 46.7081C132.788 46.9832 132.988 47.1953 133.247 47.3445C133.506 47.4936 133.812 47.5682 134.167 47.5682C134.402 47.5682 134.617 47.535 134.813 47.4688C135.009 47.4025 135.176 47.303 135.315 47.1705C135.454 47.0379 135.56 46.8755 135.633 46.6832L137.592 46.8125C137.493 47.2831 137.289 47.6941 136.981 48.0455C136.676 48.3935 136.281 48.6652 135.797 48.8608C135.317 49.053 134.762 49.1491 134.132 49.1491ZM146.321 41.3636V42.9545H141.722V41.3636H146.321ZM142.766 39.5341H144.884V46.6534C144.884 46.849 144.914 47.0014 144.974 47.1108C145.033 47.2169 145.116 47.2914 145.222 47.3345C145.332 47.3776 145.458 47.3991 145.6 47.3991C145.7 47.3991 145.799 47.3909 145.898 47.3743C145.998 47.3544 146.074 47.3395 146.127 47.3295L146.46 48.9055C146.354 48.9387 146.205 48.9768 146.013 49.0199C145.821 49.0663 145.587 49.0945 145.312 49.1044C144.801 49.1243 144.354 49.0563 143.969 48.9006C143.588 48.7448 143.292 48.5028 143.08 48.1747C142.867 47.8466 142.763 47.4323 142.766 46.9318V39.5341ZM147.701 49V41.3636H149.754V42.696H149.833C149.973 42.2221 150.206 41.8641 150.534 41.6222C150.863 41.3769 151.24 41.2543 151.668 41.2543C151.774 41.2543 151.888 41.2609 152.011 41.2741C152.134 41.2874 152.241 41.3056 152.334 41.3288V43.2081C152.235 43.1783 152.097 43.1518 151.922 43.1286C151.746 43.1054 151.585 43.0938 151.439 43.0938C151.128 43.0938 150.849 43.1617 150.604 43.2976C150.362 43.4302 150.17 43.6158 150.027 43.8544C149.888 44.093 149.819 44.3681 149.819 44.6797V49H147.701ZM155.388 49.1442C154.901 49.1442 154.467 49.0597 154.085 48.8906C153.704 48.7183 153.403 48.4647 153.181 48.13C152.962 47.7919 152.852 47.371 152.852 46.8672C152.852 46.4429 152.93 46.0866 153.086 45.7983C153.242 45.5099 153.454 45.2779 153.722 45.1023C153.991 44.9266 154.296 44.794 154.637 44.7045C154.982 44.6151 155.343 44.5521 155.721 44.5156C156.165 44.4692 156.523 44.4261 156.795 44.3864C157.067 44.3433 157.264 44.2803 157.387 44.1974C157.509 44.1146 157.57 43.992 157.57 43.8295V43.7997C157.57 43.4848 157.471 43.2412 157.272 43.0689C157.077 42.8965 156.798 42.8104 156.437 42.8104C156.056 42.8104 155.753 42.8949 155.527 43.0639C155.302 43.2296 155.153 43.4384 155.08 43.6903L153.121 43.5312C153.22 43.0672 153.416 42.6662 153.708 42.3281C153.999 41.9867 154.375 41.7249 154.836 41.5426C155.3 41.357 155.837 41.2642 156.447 41.2642C156.871 41.2642 157.277 41.3139 157.665 41.4134C158.056 41.5128 158.402 41.6669 158.704 41.8757C159.009 42.0845 159.249 42.353 159.425 42.6811C159.601 43.0059 159.688 43.3954 159.688 43.8494V49H157.68V47.9411H157.62C157.498 48.1797 157.334 48.3902 157.128 48.5724C156.923 48.7514 156.676 48.8923 156.387 48.995C156.099 49.0945 155.766 49.1442 155.388 49.1442ZM155.994 47.6825C156.306 47.6825 156.581 47.6212 156.82 47.4986C157.058 47.3726 157.246 47.2036 157.382 46.9915C157.517 46.7794 157.585 46.5391 157.585 46.2706V45.4602C157.519 45.5033 157.428 45.5431 157.312 45.5795C157.199 45.6127 157.072 45.6442 156.929 45.674C156.787 45.7005 156.644 45.7254 156.502 45.7486C156.359 45.7685 156.23 45.7867 156.114 45.8033C155.865 45.8397 155.648 45.8977 155.463 45.9773C155.277 46.0568 155.133 46.1645 155.03 46.3004C154.927 46.433 154.876 46.5987 154.876 46.7976C154.876 47.0859 154.98 47.3063 155.189 47.4588C155.401 47.608 155.67 47.6825 155.994 47.6825ZM161.331 49V41.3636H163.449V49H161.331ZM162.395 40.3793C162.081 40.3793 161.81 40.2749 161.585 40.0661C161.363 39.8539 161.252 39.6004 161.252 39.3054C161.252 39.0137 161.363 38.7635 161.585 38.5547C161.81 38.3426 162.081 38.2365 162.395 38.2365C162.71 38.2365 162.979 38.3426 163.201 38.5547C163.426 38.7635 163.539 39.0137 163.539 39.3054C163.539 39.6004 163.426 39.8539 163.201 40.0661C162.979 40.2749 162.71 40.3793 162.395 40.3793ZM167.264 44.5852V49H165.146V41.3636H167.164V42.7109H167.254C167.423 42.2668 167.706 41.9155 168.104 41.657C168.502 41.3951 168.984 41.2642 169.551 41.2642C170.081 41.2642 170.543 41.3802 170.938 41.6122C171.332 41.8442 171.639 42.1757 171.858 42.6065C172.076 43.0341 172.186 43.5445 172.186 44.1378V49H170.068V44.5156C170.071 44.0483 169.952 43.6837 169.71 43.4219C169.468 43.1567 169.135 43.0241 168.711 43.0241C168.426 43.0241 168.174 43.0855 167.955 43.2081C167.739 43.3307 167.57 43.5097 167.448 43.745C167.328 43.977 167.267 44.2571 167.264 44.5852ZM173.855 49V41.3636H175.973V49H173.855ZM174.919 40.3793C174.604 40.3793 174.334 40.2749 174.108 40.0661C173.886 39.8539 173.775 39.6004 173.775 39.3054C173.775 39.0137 173.886 38.7635 174.108 38.5547C174.334 38.3426 174.604 38.2365 174.919 38.2365C175.234 38.2365 175.502 38.3426 175.724 38.5547C175.95 38.7635 176.062 39.0137 176.062 39.3054C176.062 39.6004 175.95 39.8539 175.724 40.0661C175.502 40.2749 175.234 40.3793 174.919 40.3793ZM179.787 44.5852V49H177.669V41.3636H179.688V42.7109H179.777C179.946 42.2668 180.23 41.9155 180.627 41.657C181.025 41.3951 181.507 41.2642 182.074 41.2642C182.605 41.2642 183.067 41.3802 183.461 41.6122C183.856 41.8442 184.162 42.1757 184.381 42.6065C184.6 43.0341 184.709 43.5445 184.709 44.1378V49H182.591V44.5156C182.595 44.0483 182.475 43.6837 182.233 43.4219C181.991 43.1567 181.658 43.0241 181.234 43.0241C180.949 43.0241 180.697 43.0855 180.478 43.2081C180.263 43.3307 180.094 43.5097 179.971 43.745C179.852 43.977 179.791 44.2571 179.787 44.5852ZM189.819 52.0227C189.133 52.0227 188.544 51.9283 188.054 51.7393C187.567 51.5537 187.179 51.3002 186.89 50.9787C186.602 50.6572 186.415 50.2959 186.329 49.8949L188.287 49.6314C188.347 49.7839 188.442 49.9264 188.571 50.0589C188.7 50.1915 188.871 50.2976 189.083 50.3771C189.298 50.46 189.56 50.5014 189.868 50.5014C190.329 50.5014 190.709 50.3887 191.007 50.1634C191.309 49.9413 191.459 49.5684 191.459 49.0447V47.6477H191.37C191.277 47.8598 191.138 48.0604 190.952 48.2493C190.767 48.4382 190.528 48.5923 190.236 48.7116C189.945 48.831 189.597 48.8906 189.192 48.8906C188.619 48.8906 188.097 48.758 187.626 48.4929C187.159 48.2244 186.786 47.8151 186.508 47.2649C186.233 46.7114 186.095 46.0121 186.095 45.1669C186.095 44.3018 186.236 43.5793 186.518 42.9993C186.799 42.4193 187.174 41.9851 187.641 41.6967C188.112 41.4084 188.627 41.2642 189.187 41.2642C189.615 41.2642 189.973 41.3371 190.261 41.483C190.55 41.6255 190.782 41.8045 190.957 42.0199C191.136 42.232 191.274 42.4408 191.37 42.6463H191.449V41.3636H193.552V49.0746C193.552 49.7242 193.393 50.2678 193.075 50.7053C192.757 51.1428 192.316 51.4709 191.753 51.6896C191.193 51.9117 190.548 52.0227 189.819 52.0227ZM189.863 47.2997C190.205 47.2997 190.493 47.2152 190.729 47.0462C190.967 46.8738 191.149 46.6286 191.275 46.3104C191.405 45.9889 191.469 45.6044 191.469 45.157C191.469 44.7095 191.406 44.3217 191.28 43.9936C191.154 43.6622 190.972 43.4053 190.733 43.223C190.495 43.0407 190.205 42.9496 189.863 42.9496C189.515 42.9496 189.222 43.044 188.983 43.233C188.745 43.4186 188.564 43.6771 188.442 44.0085C188.319 44.34 188.258 44.7228 188.258 45.157C188.258 45.5978 188.319 45.9789 188.442 46.3004C188.568 46.6186 188.748 46.8655 188.983 47.0412C189.222 47.2135 189.515 47.2997 189.863 47.2997Z" fill="#1D2939"/>
<path d="M113.83 64.4545C113.778 64.0227 113.571 63.6875 113.207 63.4489C112.844 63.2102 112.398 63.0909 111.869 63.0909C111.483 63.0909 111.145 63.1534 110.855 63.2784C110.568 63.4034 110.344 63.5753 110.182 63.794C110.023 64.0128 109.943 64.2614 109.943 64.5398C109.943 64.7727 109.999 64.973 110.109 65.1406C110.223 65.3054 110.368 65.4432 110.544 65.554C110.72 65.6619 110.905 65.7514 111.098 65.8224C111.291 65.8906 111.469 65.946 111.631 65.9886L112.517 66.2273C112.744 66.2869 112.997 66.3693 113.276 66.4744C113.557 66.5795 113.825 66.723 114.081 66.9048C114.339 67.0838 114.553 67.3139 114.72 67.5952C114.888 67.8764 114.972 68.2216 114.972 68.6307C114.972 69.1023 114.848 69.5284 114.601 69.9091C114.357 70.2898 113.999 70.5923 113.527 70.8168C113.058 71.0412 112.489 71.1534 111.818 71.1534C111.193 71.1534 110.652 71.0526 110.195 70.8509C109.74 70.6491 109.382 70.3679 109.121 70.0071C108.862 69.6463 108.716 69.2273 108.682 68.75H109.773C109.801 69.0795 109.912 69.3523 110.105 69.5682C110.301 69.7812 110.548 69.9403 110.847 70.0455C111.148 70.1477 111.472 70.1989 111.818 70.1989C112.222 70.1989 112.584 70.1335 112.905 70.0028C113.226 69.8693 113.48 69.6847 113.668 69.4489C113.855 69.2102 113.949 68.9318 113.949 68.6136C113.949 68.3239 113.868 68.0881 113.706 67.9062C113.544 67.7244 113.331 67.5767 113.067 67.4631C112.803 67.3494 112.517 67.25 112.21 67.1648L111.136 66.858C110.455 66.6619 109.915 66.3821 109.517 66.0185C109.119 65.6548 108.92 65.179 108.92 64.5909C108.92 64.1023 109.053 63.6761 109.317 63.3125C109.584 62.946 109.942 62.6619 110.391 62.4602C110.842 62.2557 111.347 62.1534 111.903 62.1534C112.466 62.1534 112.966 62.2543 113.403 62.456C113.841 62.6548 114.188 62.9276 114.443 63.2741C114.702 63.6207 114.838 64.0142 114.852 64.4545H113.83ZM119.419 64.4545V65.3068H116.027V64.4545H119.419ZM117.016 62.8864H118.022V69.125C118.022 69.4091 118.063 69.6222 118.145 69.7642C118.23 69.9034 118.338 69.9972 118.469 70.0455C118.603 70.0909 118.743 70.1136 118.891 70.1136C119.002 70.1136 119.093 70.108 119.164 70.0966C119.235 70.0824 119.292 70.071 119.334 70.0625L119.539 70.9659C119.471 70.9915 119.375 71.017 119.253 71.0426C119.131 71.071 118.976 71.0852 118.789 71.0852C118.505 71.0852 118.226 71.0241 117.953 70.902C117.684 70.7798 117.459 70.5938 117.28 70.3438C117.104 70.0938 117.016 69.7784 117.016 69.3977V62.8864ZM120.932 71V64.4545H121.904V65.4432H121.972C122.091 65.1193 122.307 64.8565 122.62 64.6548C122.932 64.4531 123.284 64.3523 123.676 64.3523C123.75 64.3523 123.843 64.3537 123.953 64.3565C124.064 64.3594 124.148 64.3636 124.205 64.3693V65.392C124.171 65.3835 124.093 65.3707 123.971 65.3537C123.851 65.3338 123.725 65.3239 123.591 65.3239C123.273 65.3239 122.989 65.3906 122.739 65.5241C122.492 65.6548 122.296 65.8366 122.151 66.0696C122.009 66.2997 121.938 66.5625 121.938 66.858V71H120.932ZM127.942 71.1364C127.311 71.1364 126.767 70.9972 126.31 70.7188C125.855 70.4375 125.505 70.0455 125.257 69.5426C125.013 69.0369 124.891 68.4489 124.891 67.7784C124.891 67.108 125.013 66.517 125.257 66.0057C125.505 65.4915 125.848 65.0909 126.289 64.804C126.732 64.5142 127.249 64.3693 127.84 64.3693C128.181 64.3693 128.517 64.4261 128.85 64.5398C129.182 64.6534 129.485 64.8381 129.757 65.0938C130.03 65.3466 130.248 65.6818 130.409 66.0994C130.571 66.517 130.652 67.0312 130.652 67.642V68.0682H125.607V67.1989H129.63C129.63 66.8295 129.556 66.5 129.408 66.2102C129.263 65.9205 129.056 65.6918 128.786 65.5241C128.519 65.3565 128.203 65.2727 127.84 65.2727C127.439 65.2727 127.093 65.3722 126.8 65.571C126.51 65.767 126.287 66.0227 126.131 66.3381C125.975 66.6534 125.897 66.9915 125.897 67.3523V67.9318C125.897 68.4261 125.982 68.8452 126.152 69.1889C126.326 69.5298 126.566 69.7898 126.873 69.9688C127.179 70.1449 127.536 70.233 127.942 70.233C128.206 70.233 128.445 70.196 128.658 70.1222C128.874 70.0455 129.06 69.9318 129.216 69.7812C129.373 69.6278 129.493 69.4375 129.578 69.2102L130.55 69.483C130.448 69.8125 130.276 70.1023 130.034 70.3523C129.793 70.5994 129.495 70.7926 129.14 70.9318C128.784 71.0682 128.385 71.1364 127.942 71.1364ZM134.108 71.1534C133.694 71.1534 133.317 71.0753 132.979 70.919C132.641 70.7599 132.373 70.5312 132.174 70.233C131.975 69.9318 131.875 69.5682 131.875 69.142C131.875 68.767 131.949 68.4631 132.097 68.2301C132.245 67.9943 132.442 67.8097 132.689 67.6761C132.936 67.5426 133.209 67.4432 133.507 67.3778C133.809 67.3097 134.111 67.2557 134.415 67.2159C134.813 67.1648 135.135 67.1264 135.382 67.1009C135.632 67.0724 135.814 67.0256 135.928 66.9602C136.044 66.8949 136.103 66.7812 136.103 66.6193V66.5852C136.103 66.1648 135.988 65.8381 135.757 65.6051C135.53 65.3722 135.185 65.2557 134.722 65.2557C134.242 65.2557 133.865 65.3608 133.593 65.571C133.32 65.7812 133.128 66.0057 133.017 66.2443L132.063 65.9034C132.233 65.5057 132.461 65.196 132.745 64.9744C133.032 64.75 133.344 64.5937 133.682 64.5057C134.023 64.4148 134.358 64.3693 134.688 64.3693C134.898 64.3693 135.14 64.3949 135.412 64.446C135.688 64.4943 135.953 64.5952 136.209 64.7486C136.468 64.902 136.682 65.1335 136.853 65.4432C137.023 65.7528 137.108 66.1676 137.108 66.6875V71H136.103V70.1136H136.051C135.983 70.2557 135.87 70.4077 135.711 70.5696C135.551 70.7315 135.34 70.8693 135.076 70.983C134.811 71.0966 134.489 71.1534 134.108 71.1534ZM134.262 70.25C134.659 70.25 134.995 70.1719 135.267 70.0156C135.543 69.8594 135.75 69.6577 135.89 69.4105C136.032 69.1634 136.103 68.9034 136.103 68.6307V67.7102C136.06 67.7614 135.966 67.8082 135.821 67.8509C135.679 67.8906 135.515 67.9261 135.327 67.9574C135.142 67.9858 134.962 68.0114 134.786 68.0341C134.613 68.054 134.472 68.071 134.364 68.0852C134.103 68.1193 133.858 68.1747 133.631 68.2514C133.407 68.3253 133.225 68.4375 133.086 68.5881C132.949 68.7358 132.881 68.9375 132.881 69.1932C132.881 69.5426 133.01 69.8068 133.269 69.9858C133.53 70.1619 133.861 70.25 134.262 70.25ZM138.944 71V64.4545H139.915V65.4773H140.001C140.137 65.1278 140.357 64.8565 140.661 64.6634C140.965 64.4673 141.33 64.3693 141.756 64.3693C142.188 64.3693 142.548 64.4673 142.835 64.6634C143.124 64.8565 143.35 65.1278 143.512 65.4773H143.58C143.748 65.1392 143.999 64.8707 144.335 64.6719C144.67 64.4702 145.072 64.3693 145.54 64.3693C146.126 64.3693 146.604 64.5526 146.977 64.919C147.349 65.2827 147.535 65.8494 147.535 66.6193V71H146.529V66.6193C146.529 66.1364 146.397 65.7912 146.133 65.5838C145.869 65.3764 145.558 65.2727 145.2 65.2727C144.739 65.2727 144.383 65.4119 144.13 65.6903C143.877 65.9659 143.751 66.3153 143.751 66.7386V71H142.728V66.517C142.728 66.1449 142.607 65.8452 142.366 65.6179C142.124 65.3878 141.813 65.2727 141.433 65.2727C141.171 65.2727 140.927 65.3423 140.7 65.4815C140.475 65.6207 140.293 65.8139 140.154 66.0611C140.018 66.3054 139.95 66.5881 139.95 66.9091V71H138.944ZM150.379 62.2727V71H149.374V62.2727H150.379ZM152.221 71V64.4545H153.227V71H152.221ZM152.733 63.3636C152.537 63.3636 152.368 63.2969 152.225 63.1634C152.086 63.0298 152.017 62.8693 152.017 62.6818C152.017 62.4943 152.086 62.3338 152.225 62.2003C152.368 62.0668 152.537 62 152.733 62C152.929 62 153.096 62.0668 153.235 62.2003C153.377 62.3338 153.449 62.4943 153.449 62.6818C153.449 62.8693 153.377 63.0298 153.235 63.1634C153.096 63.2969 152.929 63.3636 152.733 63.3636ZM156.075 67.0625V71H155.069V64.4545H156.04V65.4773H156.126C156.279 65.1449 156.512 64.8778 156.825 64.6761C157.137 64.4716 157.54 64.3693 158.035 64.3693C158.478 64.3693 158.866 64.4602 159.198 64.642C159.531 64.821 159.789 65.0938 159.974 65.4602C160.158 65.8239 160.251 66.2841 160.251 66.8409V71H159.245V66.9091C159.245 66.3949 159.112 65.9943 158.844 65.7074C158.577 65.4176 158.211 65.2727 157.745 65.2727C157.424 65.2727 157.137 65.3423 156.884 65.4815C156.634 65.6207 156.437 65.8239 156.292 66.0909C156.147 66.358 156.075 66.6818 156.075 67.0625ZM164.833 71.1364C164.202 71.1364 163.658 70.9972 163.201 70.7188C162.746 70.4375 162.395 70.0455 162.148 69.5426C161.904 69.0369 161.782 68.4489 161.782 67.7784C161.782 67.108 161.904 66.517 162.148 66.0057C162.395 65.4915 162.739 65.0909 163.179 64.804C163.623 64.5142 164.14 64.3693 164.73 64.3693C165.071 64.3693 165.408 64.4261 165.74 64.5398C166.073 64.6534 166.375 64.8381 166.648 65.0938C166.921 65.3466 167.138 65.6818 167.3 66.0994C167.462 66.517 167.543 67.0312 167.543 67.642V68.0682H162.498V67.1989H166.52C166.52 66.8295 166.446 66.5 166.299 66.2102C166.154 65.9205 165.946 65.6918 165.676 65.5241C165.409 65.3565 165.094 65.2727 164.73 65.2727C164.33 65.2727 163.983 65.3722 163.691 65.571C163.401 65.767 163.178 66.0227 163.022 66.3381C162.865 66.6534 162.787 66.9915 162.787 67.3523V67.9318C162.787 68.4261 162.873 68.8452 163.043 69.1889C163.216 69.5298 163.456 69.7898 163.763 69.9688C164.07 70.1449 164.426 70.233 164.833 70.233C165.097 70.233 165.336 70.196 165.549 70.1222C165.765 70.0455 165.951 69.9318 166.107 69.7812C166.263 69.6278 166.384 69.4375 166.469 69.2102L167.441 69.483C167.338 69.8125 167.167 70.1023 166.925 70.3523C166.684 70.5994 166.385 70.7926 166.03 70.9318C165.675 71.0682 165.276 71.1364 164.833 71.1364ZM172.448 73.4545V64.4545H173.419V65.4943H173.539C173.613 65.3807 173.715 65.2358 173.846 65.0597C173.979 64.8807 174.169 64.7216 174.417 64.5824C174.667 64.4403 175.005 64.3693 175.431 64.3693C175.982 64.3693 176.468 64.5071 176.888 64.7827C177.309 65.0582 177.637 65.4489 177.873 65.9545C178.108 66.4602 178.226 67.0568 178.226 67.7443C178.226 68.4375 178.108 69.0384 177.873 69.5469C177.637 70.0526 177.31 70.4446 176.892 70.723C176.475 70.9986 175.993 71.1364 175.448 71.1364C175.027 71.1364 174.691 71.0668 174.438 70.9276C174.185 70.7855 173.99 70.625 173.854 70.446C173.718 70.2642 173.613 70.1136 173.539 69.9943H173.453V73.4545H172.448ZM173.436 67.7273C173.436 68.2216 173.509 68.6577 173.654 69.0355C173.799 69.4105 174.01 69.7045 174.289 69.9176C174.567 70.1278 174.908 70.233 175.311 70.233C175.732 70.233 176.083 70.1222 176.364 69.9006C176.648 69.6761 176.861 69.375 177.003 68.9972C177.148 68.6165 177.221 68.1932 177.221 67.7273C177.221 67.267 177.15 66.8523 177.007 66.483C176.868 66.1108 176.657 65.8168 176.373 65.6009C176.091 65.3821 175.738 65.2727 175.311 65.2727C174.902 65.2727 174.559 65.3764 174.28 65.5838C174.002 65.7884 173.792 66.0753 173.65 66.4446C173.507 66.8111 173.436 67.2386 173.436 67.7273ZM179.76 71V64.4545H180.732V65.4432H180.8C180.919 65.1193 181.135 64.8565 181.448 64.6548C181.76 64.4531 182.113 64.3523 182.505 64.3523C182.578 64.3523 182.671 64.3537 182.782 64.3565C182.892 64.3594 182.976 64.3636 183.033 64.3693V65.392C182.999 65.3835 182.921 65.3707 182.799 65.3537C182.679 65.3338 182.553 65.3239 182.419 65.3239C182.101 65.3239 181.817 65.3906 181.567 65.5241C181.32 65.6548 181.124 65.8366 180.979 66.0696C180.837 66.2997 180.766 66.5625 180.766 66.858V71H179.76ZM186.685 71.1364C186.094 71.1364 185.576 70.9957 185.13 70.7145C184.686 70.4332 184.34 70.0398 184.09 69.5341C183.843 69.0284 183.719 68.4375 183.719 67.7614C183.719 67.0795 183.843 66.4844 184.09 65.9759C184.34 65.4673 184.686 65.0724 185.13 64.7912C185.576 64.5099 186.094 64.3693 186.685 64.3693C187.276 64.3693 187.793 64.5099 188.236 64.7912C188.682 65.0724 189.029 65.4673 189.276 65.9759C189.526 66.4844 189.651 67.0795 189.651 67.7614C189.651 68.4375 189.526 69.0284 189.276 69.5341C189.029 70.0398 188.682 70.4332 188.236 70.7145C187.793 70.9957 187.276 71.1364 186.685 71.1364ZM186.685 70.233C187.134 70.233 187.503 70.1179 187.793 69.8878C188.083 69.6577 188.297 69.3551 188.436 68.9801C188.576 68.6051 188.645 68.1989 188.645 67.7614C188.645 67.3239 188.576 66.9162 188.436 66.5384C188.297 66.1605 188.083 65.8551 187.793 65.6222C187.503 65.3892 187.134 65.2727 186.685 65.2727C186.236 65.2727 185.867 65.3892 185.577 65.6222C185.287 65.8551 185.073 66.1605 184.934 66.5384C184.794 66.9162 184.725 67.3239 184.725 67.7614C184.725 68.1989 184.794 68.6051 184.934 68.9801C185.073 69.3551 185.287 69.6577 185.577 69.8878C185.867 70.1179 186.236 70.233 186.685 70.233ZM193.845 71.1364C193.232 71.1364 192.703 70.9915 192.26 70.7017C191.817 70.4119 191.476 70.0128 191.237 69.5043C190.999 68.9957 190.879 68.4148 190.879 67.7614C190.879 67.0966 191.001 66.5099 191.246 66.0014C191.493 65.4901 191.837 65.0909 192.277 64.804C192.72 64.5142 193.237 64.3693 193.828 64.3693C194.288 64.3693 194.703 64.4545 195.072 64.625C195.442 64.7955 195.744 65.0341 195.98 65.3409C196.216 65.6477 196.362 66.0057 196.419 66.4148H195.413C195.337 66.1165 195.166 65.8523 194.902 65.6222C194.641 65.3892 194.288 65.2727 193.845 65.2727C193.453 65.2727 193.109 65.375 192.814 65.5795C192.521 65.7812 192.293 66.0668 192.128 66.4361C191.966 66.8026 191.885 67.233 191.885 67.7273C191.885 68.233 191.964 68.6733 192.124 69.0483C192.286 69.4233 192.513 69.7145 192.805 69.9219C193.101 70.1293 193.447 70.233 193.845 70.233C194.107 70.233 194.344 70.1875 194.557 70.0966C194.77 70.0057 194.95 69.875 195.098 69.7045C195.246 69.5341 195.351 69.3295 195.413 69.0909H196.419C196.362 69.4773 196.222 69.8253 195.997 70.1349C195.776 70.4418 195.482 70.6861 195.115 70.8679C194.751 71.0469 194.328 71.1364 193.845 71.1364ZM200.634 71.1364C200.003 71.1364 199.459 70.9972 199.001 70.7188C198.547 70.4375 198.196 70.0455 197.949 69.5426C197.705 69.0369 197.582 68.4489 197.582 67.7784C197.582 67.108 197.705 66.517 197.949 66.0057C198.196 65.4915 198.54 65.0909 198.98 64.804C199.423 64.5142 199.94 64.3693 200.531 64.3693C200.872 64.3693 201.209 64.4261 201.541 64.5398C201.874 64.6534 202.176 64.8381 202.449 65.0938C202.722 65.3466 202.939 65.6818 203.101 66.0994C203.263 66.517 203.344 67.0312 203.344 67.642V68.0682H198.298V67.1989H202.321C202.321 66.8295 202.247 66.5 202.099 66.2102C201.955 65.9205 201.747 65.6918 201.477 65.5241C201.21 65.3565 200.895 65.2727 200.531 65.2727C200.131 65.2727 199.784 65.3722 199.491 65.571C199.202 65.767 198.979 66.0227 198.822 66.3381C198.666 66.6534 198.588 66.9915 198.588 67.3523V67.9318C198.588 68.4261 198.673 68.8452 198.844 69.1889C199.017 69.5298 199.257 69.7898 199.564 69.9688C199.871 70.1449 200.227 70.233 200.634 70.233C200.898 70.233 201.136 70.196 201.349 70.1222C201.565 70.0455 201.751 69.9318 201.908 69.7812C202.064 69.6278 202.185 69.4375 202.27 69.2102L203.241 69.483C203.139 69.8125 202.967 70.1023 202.726 70.3523C202.484 70.5994 202.186 70.7926 201.831 70.9318C201.476 71.0682 201.077 71.1364 200.634 71.1364ZM209.51 65.9205L208.607 66.1761C208.55 66.0256 208.466 65.8793 208.355 65.7372C208.247 65.5923 208.099 65.473 207.912 65.3793C207.724 65.2855 207.484 65.2386 207.192 65.2386C206.791 65.2386 206.457 65.331 206.19 65.5156C205.926 65.6974 205.794 65.929 205.794 66.2102C205.794 66.4602 205.885 66.6577 206.067 66.8026C206.249 66.9474 206.533 67.0682 206.919 67.1648L207.891 67.4034C208.476 67.5455 208.912 67.7628 209.199 68.0554C209.486 68.3452 209.629 68.7187 209.629 69.1761C209.629 69.5511 209.521 69.8864 209.305 70.1818C209.092 70.4773 208.794 70.7102 208.411 70.8807C208.027 71.0511 207.581 71.1364 207.072 71.1364C206.405 71.1364 205.852 70.9915 205.415 70.7017C204.977 70.4119 204.7 69.9886 204.584 69.4318L205.538 69.1932C205.629 69.5455 205.801 69.8097 206.054 69.9858C206.31 70.1619 206.643 70.25 207.055 70.25C207.524 70.25 207.896 70.1506 208.172 69.9517C208.45 69.75 208.589 69.5085 208.589 69.2273C208.589 69 208.51 68.8097 208.351 68.6562C208.192 68.5 207.947 68.3835 207.618 68.3068L206.527 68.0511C205.928 67.9091 205.487 67.6889 205.206 67.3906C204.928 67.0895 204.788 66.7131 204.788 66.2614C204.788 65.892 204.892 65.5653 205.099 65.2812C205.31 64.9972 205.595 64.7741 205.956 64.6122C206.32 64.4503 206.732 64.3693 207.192 64.3693C207.839 64.3693 208.348 64.5114 208.717 64.7955C209.089 65.0795 209.354 65.4545 209.51 65.9205ZM215.779 65.9205L214.876 66.1761C214.819 66.0256 214.735 65.8793 214.625 65.7372C214.517 65.5923 214.369 65.473 214.181 65.3793C213.994 65.2855 213.754 65.2386 213.461 65.2386C213.061 65.2386 212.727 65.331 212.46 65.5156C212.196 65.6974 212.064 65.929 212.064 66.2102C212.064 66.4602 212.154 66.6577 212.336 66.8026C212.518 66.9474 212.802 67.0682 213.189 67.1648L214.16 67.4034C214.745 67.5455 215.181 67.7628 215.468 68.0554C215.755 68.3452 215.899 68.7187 215.899 69.1761C215.899 69.5511 215.791 69.8864 215.575 70.1818C215.362 70.4773 215.064 70.7102 214.68 70.8807C214.297 71.0511 213.85 71.1364 213.342 71.1364C212.674 71.1364 212.122 70.9915 211.684 70.7017C211.247 70.4119 210.97 69.9886 210.853 69.4318L211.808 69.1932C211.899 69.5455 212.071 69.8097 212.324 69.9858C212.579 70.1619 212.913 70.25 213.325 70.25C213.794 70.25 214.166 70.1506 214.441 69.9517C214.72 69.75 214.859 69.5085 214.859 69.2273C214.859 69 214.779 68.8097 214.62 68.6562C214.461 68.5 214.217 68.3835 213.887 68.3068L212.797 68.0511C212.197 67.9091 211.757 67.6889 211.475 67.3906C211.197 67.0895 211.058 66.7131 211.058 66.2614C211.058 65.892 211.162 65.5653 211.369 65.2812C211.579 64.9972 211.865 64.7741 212.225 64.6122C212.589 64.4503 213.001 64.3693 213.461 64.3693C214.109 64.3693 214.618 64.5114 214.987 64.7955C215.359 65.0795 215.623 65.4545 215.779 65.9205ZM220.157 71.1364C219.526 71.1364 218.982 70.9972 218.525 70.7188C218.07 70.4375 217.719 70.0455 217.472 69.5426C217.228 69.0369 217.106 68.4489 217.106 67.7784C217.106 67.108 217.228 66.517 217.472 66.0057C217.719 65.4915 218.063 65.0909 218.504 64.804C218.947 64.5142 219.464 64.3693 220.055 64.3693C220.396 64.3693 220.732 64.4261 221.065 64.5398C221.397 64.6534 221.7 64.8381 221.972 65.0938C222.245 65.3466 222.462 65.6818 222.624 66.0994C222.786 66.517 222.867 67.0312 222.867 67.642V68.0682H217.822V67.1989H221.844C221.844 66.8295 221.771 66.5 221.623 66.2102C221.478 65.9205 221.271 65.6918 221.001 65.5241C220.734 65.3565 220.418 65.2727 220.055 65.2727C219.654 65.2727 219.308 65.3722 219.015 65.571C218.725 65.767 218.502 66.0227 218.346 66.3381C218.19 66.6534 218.112 66.9915 218.112 67.3523V67.9318C218.112 68.4261 218.197 68.8452 218.367 69.1889C218.54 69.5298 218.781 69.7898 219.087 69.9688C219.394 70.1449 219.751 70.233 220.157 70.233C220.421 70.233 220.66 70.196 220.873 70.1222C221.089 70.0455 221.275 69.9318 221.431 69.7812C221.587 69.6278 221.708 69.4375 221.793 69.2102L222.765 69.483C222.663 69.8125 222.491 70.1023 222.249 70.3523C222.008 70.5994 221.71 70.7926 221.354 70.9318C220.999 71.0682 220.6 71.1364 220.157 71.1364ZM229.033 65.9205L228.13 66.1761C228.073 66.0256 227.989 65.8793 227.879 65.7372C227.771 65.5923 227.623 65.473 227.435 65.3793C227.248 65.2855 227.008 65.2386 226.715 65.2386C226.315 65.2386 225.981 65.331 225.714 65.5156C225.45 65.6974 225.317 65.929 225.317 66.2102C225.317 66.4602 225.408 66.6577 225.59 66.8026C225.772 66.9474 226.056 67.0682 226.442 67.1648L227.414 67.4034C227.999 67.5455 228.435 67.7628 228.722 68.0554C229.009 68.3452 229.153 68.7187 229.153 69.1761C229.153 69.5511 229.045 69.8864 228.829 70.1818C228.616 70.4773 228.317 70.7102 227.934 70.8807C227.55 71.0511 227.104 71.1364 226.596 71.1364C225.928 71.1364 225.376 70.9915 224.938 70.7017C224.501 70.4119 224.224 69.9886 224.107 69.4318L225.062 69.1932C225.153 69.5455 225.325 69.8097 225.577 69.9858C225.833 70.1619 226.167 70.25 226.579 70.25C227.048 70.25 227.42 70.1506 227.695 69.9517C227.974 69.75 228.113 69.5085 228.113 69.2273C228.113 69 228.033 68.8097 227.874 68.6562C227.715 68.5 227.471 68.3835 227.141 68.3068L226.05 68.0511C225.451 67.9091 225.011 67.6889 224.729 67.3906C224.451 67.0895 224.312 66.7131 224.312 66.2614C224.312 65.892 224.415 65.5653 224.623 65.2812C224.833 64.9972 225.119 64.7741 225.479 64.6122C225.843 64.4503 226.255 64.3693 226.715 64.3693C227.363 64.3693 227.871 64.5114 228.241 64.7955C228.613 65.0795 228.877 65.4545 229.033 65.9205ZM232.167 69.8068L232.098 70.267C232.05 70.5909 231.976 70.9375 231.877 71.3068C231.78 71.6761 231.679 72.0241 231.574 72.3509C231.469 72.6776 231.382 72.9375 231.314 73.1307H230.547C230.584 72.9489 230.632 72.7088 230.692 72.4105C230.752 72.1122 230.811 71.7784 230.871 71.4091C230.934 71.0426 230.985 70.6676 231.025 70.2841L231.076 69.8068H232.167ZM237.405 71V64.4545H238.376V65.4432H238.445C238.564 65.1193 238.78 64.8565 239.092 64.6548C239.405 64.4531 239.757 64.3523 240.149 64.3523C240.223 64.3523 240.315 64.3537 240.426 64.3565C240.537 64.3594 240.621 64.3636 240.678 64.3693V65.392C240.643 65.3835 240.565 65.3707 240.443 65.3537C240.324 65.3338 240.197 65.3239 240.064 65.3239C239.746 65.3239 239.462 65.3906 239.212 65.5241C238.964 65.6548 238.768 65.8366 238.624 66.0696C238.482 66.2997 238.411 66.5625 238.411 66.858V71H237.405ZM244.415 71.1364C243.784 71.1364 243.24 70.9972 242.783 70.7188C242.328 70.4375 241.977 70.0455 241.73 69.5426C241.486 69.0369 241.364 68.4489 241.364 67.7784C241.364 67.108 241.486 66.517 241.73 66.0057C241.977 65.4915 242.321 65.0909 242.761 64.804C243.205 64.5142 243.722 64.3693 244.312 64.3693C244.653 64.3693 244.99 64.4261 245.322 64.5398C245.655 64.6534 245.957 64.8381 246.23 65.0938C246.503 65.3466 246.72 65.6818 246.882 66.0994C247.044 66.517 247.125 67.0312 247.125 67.642V68.0682H242.08V67.1989H246.102C246.102 66.8295 246.028 66.5 245.881 66.2102C245.736 65.9205 245.528 65.6918 245.259 65.5241C244.991 65.3565 244.676 65.2727 244.312 65.2727C243.912 65.2727 243.565 65.3722 243.273 65.571C242.983 65.767 242.76 66.0227 242.604 66.3381C242.447 66.6534 242.369 66.9915 242.369 67.3523V67.9318C242.369 68.4261 242.455 68.8452 242.625 69.1889C242.798 69.5298 243.038 69.7898 243.345 69.9688C243.652 70.1449 244.009 70.233 244.415 70.233C244.679 70.233 244.918 70.196 245.131 70.1222C245.347 70.0455 245.533 69.9318 245.689 69.7812C245.845 69.6278 245.966 69.4375 246.051 69.2102L247.023 69.483C246.92 69.8125 246.749 70.1023 246.507 70.3523C246.266 70.5994 245.967 70.7926 245.612 70.9318C245.257 71.0682 244.858 71.1364 244.415 71.1364ZM251.126 71.1364C250.581 71.1364 250.099 70.9986 249.682 70.723C249.264 70.4446 248.938 70.0526 248.702 69.5469C248.466 69.0384 248.348 68.4375 248.348 67.7443C248.348 67.0568 248.466 66.4602 248.702 65.9545C248.938 65.4489 249.266 65.0582 249.686 64.7827C250.107 64.5071 250.592 64.3693 251.143 64.3693C251.57 64.3693 251.906 64.4403 252.153 64.5824C252.403 64.7216 252.594 64.8807 252.724 65.0597C252.858 65.2358 252.962 65.3807 253.036 65.4943H253.121V62.2727H254.126V71H253.155V69.9943H253.036C252.962 70.1136 252.857 70.2642 252.72 70.446C252.584 70.625 252.389 70.7855 252.136 70.9276C251.884 71.0668 251.547 71.1364 251.126 71.1364ZM251.263 70.233C251.666 70.233 252.007 70.1278 252.286 69.9176C252.564 69.7045 252.776 69.4105 252.92 69.0355C253.065 68.6577 253.138 68.2216 253.138 67.7273C253.138 67.2386 253.067 66.8111 252.925 66.4446C252.783 66.0753 252.572 65.7884 252.294 65.5838C252.016 65.3764 251.672 65.2727 251.263 65.2727C250.837 65.2727 250.482 65.3821 250.197 65.6009C249.916 65.8168 249.705 66.1108 249.562 66.483C249.423 66.8523 249.354 67.267 249.354 67.7273C249.354 68.1932 249.425 68.6165 249.567 68.9972C249.712 69.375 249.925 69.6761 250.206 69.9006C250.49 70.1222 250.842 70.233 251.263 70.233ZM260.233 68.3239V64.4545H261.239V71H260.233V69.892H260.165C260.011 70.2244 259.773 70.5071 259.449 70.7401C259.125 70.9702 258.716 71.0852 258.222 71.0852C257.812 71.0852 257.449 70.9957 257.131 70.8168C256.813 70.6349 256.563 70.3622 256.381 69.9986C256.199 69.6321 256.108 69.1705 256.108 68.6136V64.4545H257.114V68.5455C257.114 69.0227 257.247 69.4034 257.514 69.6875C257.784 69.9716 258.128 70.1136 258.545 70.1136C258.795 70.1136 259.05 70.0497 259.308 69.9219C259.57 69.794 259.788 69.598 259.964 69.3338C260.143 69.0696 260.233 68.733 260.233 68.3239ZM265.74 71.1364C265.126 71.1364 264.598 70.9915 264.154 70.7017C263.711 70.4119 263.37 70.0128 263.132 69.5043C262.893 68.9957 262.774 68.4148 262.774 67.7614C262.774 67.0966 262.896 66.5099 263.14 66.0014C263.387 65.4901 263.731 65.0909 264.172 64.804C264.615 64.5142 265.132 64.3693 265.723 64.3693C266.183 64.3693 266.598 64.4545 266.967 64.625C267.336 64.7955 267.639 65.0341 267.875 65.3409C268.11 65.6477 268.257 66.0057 268.314 66.4148H267.308C267.231 66.1165 267.061 65.8523 266.797 65.6222C266.535 65.3892 266.183 65.2727 265.74 65.2727C265.348 65.2727 265.004 65.375 264.708 65.5795C264.416 65.7812 264.187 66.0668 264.022 66.4361C263.86 66.8026 263.779 67.233 263.779 67.7273C263.779 68.233 263.859 68.6733 264.018 69.0483C264.18 69.4233 264.407 69.7145 264.7 69.9219C264.995 70.1293 265.342 70.233 265.74 70.233C266.001 70.233 266.238 70.1875 266.451 70.0966C266.664 70.0057 266.845 69.875 266.993 69.7045C267.14 69.5341 267.245 69.3295 267.308 69.0909H268.314C268.257 69.4773 268.116 69.8253 267.892 70.1349C267.67 70.4418 267.376 70.6861 267.01 70.8679C266.646 71.0469 266.223 71.1364 265.74 71.1364ZM272.528 71.1364C271.897 71.1364 271.353 70.9972 270.896 70.7188C270.441 70.4375 270.091 70.0455 269.843 69.5426C269.599 69.0369 269.477 68.4489 269.477 67.7784C269.477 67.108 269.599 66.517 269.843 66.0057C270.091 65.4915 270.434 65.0909 270.875 64.804C271.318 64.5142 271.835 64.3693 272.426 64.3693C272.767 64.3693 273.103 64.4261 273.436 64.5398C273.768 64.6534 274.071 64.8381 274.343 65.0938C274.616 65.3466 274.833 65.6818 274.995 66.0994C275.157 66.517 275.238 67.0312 275.238 67.642V68.0682H270.193V67.1989H274.216C274.216 66.8295 274.142 66.5 273.994 66.2102C273.849 65.9205 273.642 65.6918 273.372 65.5241C273.105 65.3565 272.789 65.2727 272.426 65.2727C272.025 65.2727 271.679 65.3722 271.386 65.571C271.096 65.767 270.873 66.0227 270.717 66.3381C270.561 66.6534 270.483 66.9915 270.483 67.3523V67.9318C270.483 68.4261 270.568 68.8452 270.738 69.1889C270.912 69.5298 271.152 69.7898 271.458 69.9688C271.765 70.1449 272.122 70.233 272.528 70.233C272.792 70.233 273.031 70.196 273.244 70.1222C273.46 70.0455 273.646 69.9318 273.802 69.7812C273.958 69.6278 274.079 69.4375 274.164 69.2102L275.136 69.483C275.034 69.8125 274.862 70.1023 274.62 70.3523C274.379 70.5994 274.081 70.7926 273.725 70.9318C273.37 71.0682 272.971 71.1364 272.528 71.1364ZM111.665 89.1364C111.034 89.1364 110.49 88.9972 110.033 88.7188C109.578 88.4375 109.227 88.0455 108.98 87.5426C108.736 87.0369 108.614 86.4489 108.614 85.7784C108.614 85.108 108.736 84.517 108.98 84.0057C109.227 83.4915 109.571 83.0909 110.011 82.804C110.455 82.5142 110.972 82.3693 111.562 82.3693C111.903 82.3693 112.24 82.4261 112.572 82.5398C112.905 82.6534 113.207 82.8381 113.48 83.0938C113.753 83.3466 113.97 83.6818 114.132 84.0994C114.294 84.517 114.375 85.0312 114.375 85.642V86.0682H109.33V85.1989H113.352C113.352 84.8295 113.278 84.5 113.131 84.2102C112.986 83.9205 112.778 83.6918 112.509 83.5241C112.241 83.3565 111.926 83.2727 111.562 83.2727C111.162 83.2727 110.815 83.3722 110.523 83.571C110.233 83.767 110.01 84.0227 109.854 84.3381C109.697 84.6534 109.619 84.9915 109.619 85.3523V85.9318C109.619 86.4261 109.705 86.8452 109.875 87.1889C110.048 87.5298 110.288 87.7898 110.595 87.9688C110.902 88.1449 111.259 88.233 111.665 88.233C111.929 88.233 112.168 88.196 112.381 88.1222C112.597 88.0455 112.783 87.9318 112.939 87.7812C113.095 87.6278 113.216 87.4375 113.301 87.2102L114.273 87.483C114.17 87.8125 113.999 88.1023 113.757 88.3523C113.516 88.5994 113.217 88.7926 112.862 88.9318C112.507 89.0682 112.108 89.1364 111.665 89.1364ZM115.905 89V82.4545H116.876V83.4432H116.945C117.064 83.1193 117.28 82.8565 117.592 82.6548C117.905 82.4531 118.257 82.3523 118.649 82.3523C118.723 82.3523 118.815 82.3537 118.926 82.3565C119.037 82.3594 119.121 82.3636 119.178 82.3693V83.392C119.143 83.3835 119.065 83.3707 118.943 83.3537C118.824 83.3338 118.697 83.3239 118.564 83.3239C118.246 83.3239 117.962 83.3906 117.712 83.5241C117.464 83.6548 117.268 83.8366 117.124 84.0696C116.982 84.2997 116.911 84.5625 116.911 84.858V89H115.905ZM120.37 89V82.4545H121.341V83.4432H121.409C121.529 83.1193 121.745 82.8565 122.057 82.6548C122.37 82.4531 122.722 82.3523 123.114 82.3523C123.188 82.3523 123.28 82.3537 123.391 82.3565C123.502 82.3594 123.586 82.3636 123.642 82.3693V83.392C123.608 83.3835 123.53 83.3707 123.408 83.3537C123.289 83.3338 123.162 83.3239 123.029 83.3239C122.711 83.3239 122.426 83.3906 122.176 83.5241C121.929 83.6548 121.733 83.8366 121.588 84.0696C121.446 84.2997 121.375 84.5625 121.375 84.858V89H120.37ZM127.294 89.1364C126.703 89.1364 126.185 88.9957 125.739 88.7145C125.296 88.4332 124.949 88.0398 124.699 87.5341C124.452 87.0284 124.328 86.4375 124.328 85.7614C124.328 85.0795 124.452 84.4844 124.699 83.9759C124.949 83.4673 125.296 83.0724 125.739 82.7912C126.185 82.5099 126.703 82.3693 127.294 82.3693C127.885 82.3693 128.402 82.5099 128.846 82.7912C129.292 83.0724 129.638 83.4673 129.885 83.9759C130.135 84.4844 130.26 85.0795 130.26 85.7614C130.26 86.4375 130.135 87.0284 129.885 87.5341C129.638 88.0398 129.292 88.4332 128.846 88.7145C128.402 88.9957 127.885 89.1364 127.294 89.1364ZM127.294 88.233C127.743 88.233 128.113 88.1179 128.402 87.8878C128.692 87.6577 128.907 87.3551 129.046 86.9801C129.185 86.6051 129.255 86.1989 129.255 85.7614C129.255 85.3239 129.185 84.9162 129.046 84.5384C128.907 84.1605 128.692 83.8551 128.402 83.6222C128.113 83.3892 127.743 83.2727 127.294 83.2727C126.846 83.2727 126.476 83.3892 126.186 83.6222C125.897 83.8551 125.682 84.1605 125.543 84.5384C125.404 84.9162 125.334 85.3239 125.334 85.7614C125.334 86.1989 125.404 86.6051 125.543 86.9801C125.682 87.3551 125.897 87.6577 126.186 87.8878C126.476 88.1179 126.846 88.233 127.294 88.233ZM131.795 89V82.4545H132.767V83.4432H132.835C132.955 83.1193 133.17 82.8565 133.483 82.6548C133.795 82.4531 134.148 82.3523 134.54 82.3523C134.614 82.3523 134.706 82.3537 134.817 82.3565C134.928 82.3594 135.011 82.3636 135.068 82.3693V83.392C135.034 83.3835 134.956 83.3707 134.834 83.3537C134.714 83.3338 134.588 83.3239 134.455 83.3239C134.136 83.3239 133.852 83.3906 133.602 83.5241C133.355 83.6548 133.159 83.8366 133.014 84.0696C132.872 84.2997 132.801 84.5625 132.801 84.858V89H131.795ZM140.897 83.9205L139.993 84.1761C139.936 84.0256 139.853 83.8793 139.742 83.7372C139.634 83.5923 139.486 83.473 139.299 83.3793C139.111 83.2855 138.871 83.2386 138.578 83.2386C138.178 83.2386 137.844 83.331 137.577 83.5156C137.313 83.6974 137.181 83.929 137.181 84.2102C137.181 84.4602 137.272 84.6577 137.453 84.8026C137.635 84.9474 137.919 85.0682 138.306 85.1648L139.277 85.4034C139.863 85.5455 140.299 85.7628 140.586 86.0554C140.873 86.3452 141.016 86.7187 141.016 87.1761C141.016 87.5511 140.908 87.8864 140.692 88.1818C140.479 88.4773 140.181 88.7102 139.797 88.8807C139.414 89.0511 138.968 89.1364 138.459 89.1364C137.792 89.1364 137.239 88.9915 136.801 88.7017C136.364 88.4119 136.087 87.9886 135.971 87.4318L136.925 87.1932C137.016 87.5455 137.188 87.8097 137.441 87.9858C137.696 88.1619 138.03 88.25 138.442 88.25C138.911 88.25 139.283 88.1506 139.559 87.9517C139.837 87.75 139.976 87.5085 139.976 87.2273C139.976 87 139.897 86.8097 139.738 86.6562C139.578 86.5 139.334 86.3835 139.005 86.3068L137.914 86.0511C137.314 85.9091 136.874 85.6889 136.593 85.3906C136.314 85.0895 136.175 84.7131 136.175 84.2614C136.175 83.892 136.279 83.5653 136.486 83.2812C136.696 82.9972 136.982 82.7741 137.343 82.6122C137.706 82.4503 138.118 82.3693 138.578 82.3693C139.226 82.3693 139.735 82.5114 140.104 82.7955C140.476 83.0795 140.74 83.4545 140.897 83.9205ZM144.03 87.8068L143.962 88.267C143.913 88.5909 143.839 88.9375 143.74 89.3068C143.643 89.6761 143.543 90.0241 143.438 90.3509C143.332 90.6776 143.246 90.9375 143.178 91.1307H142.411C142.447 90.9489 142.496 90.7088 142.555 90.4105C142.615 90.1122 142.675 89.7784 142.734 89.4091C142.797 89.0426 142.848 88.6676 142.888 88.2841L142.939 87.8068H144.03ZM151.194 89.1534C150.779 89.1534 150.403 89.0753 150.065 88.919C149.727 88.7599 149.458 88.5312 149.26 88.233C149.061 87.9318 148.961 87.5682 148.961 87.142C148.961 86.767 149.035 86.4631 149.183 86.2301C149.331 85.9943 149.528 85.8097 149.775 85.6761C150.022 85.5426 150.295 85.4432 150.593 85.3778C150.895 85.3097 151.197 85.2557 151.501 85.2159C151.899 85.1648 152.221 85.1264 152.468 85.1009C152.718 85.0724 152.9 85.0256 153.014 84.9602C153.13 84.8949 153.189 84.7812 153.189 84.6193V84.5852C153.189 84.1648 153.074 83.8381 152.843 83.6051C152.616 83.3722 152.271 83.2557 151.808 83.2557C151.328 83.2557 150.951 83.3608 150.679 83.571C150.406 83.7812 150.214 84.0057 150.103 84.2443L149.149 83.9034C149.319 83.5057 149.547 83.196 149.831 82.9744C150.118 82.75 150.43 82.5937 150.768 82.5057C151.109 82.4148 151.444 82.3693 151.774 82.3693C151.984 82.3693 152.225 82.3949 152.498 82.446C152.774 82.4943 153.039 82.5952 153.295 82.7486C153.554 82.902 153.768 83.1335 153.939 83.4432C154.109 83.7528 154.194 84.1676 154.194 84.6875V89H153.189V88.1136H153.137C153.069 88.2557 152.956 88.4077 152.797 88.5696C152.637 88.7315 152.426 88.8693 152.162 88.983C151.897 89.0966 151.575 89.1534 151.194 89.1534ZM151.348 88.25C151.745 88.25 152.081 88.1719 152.353 88.0156C152.629 87.8594 152.836 87.6577 152.975 87.4105C153.118 87.1634 153.189 86.9034 153.189 86.6307V85.7102C153.146 85.7614 153.052 85.8082 152.907 85.8509C152.765 85.8906 152.6 85.9261 152.413 85.9574C152.228 85.9858 152.048 86.0114 151.872 86.0341C151.699 86.054 151.558 86.071 151.45 86.0852C151.189 86.1193 150.944 86.1747 150.717 86.2514C150.493 86.3253 150.311 86.4375 150.172 86.5881C150.035 86.7358 149.967 86.9375 149.967 87.1932C149.967 87.5426 150.096 87.8068 150.355 87.9858C150.616 88.1619 150.947 88.25 151.348 88.25ZM157.036 85.0625V89H156.03V82.4545H157.001V83.4773H157.087C157.24 83.1449 157.473 82.8778 157.786 82.6761C158.098 82.4716 158.501 82.3693 158.996 82.3693C159.439 82.3693 159.827 82.4602 160.159 82.642C160.491 82.821 160.75 83.0938 160.935 83.4602C161.119 83.8239 161.212 84.2841 161.212 84.8409V89H160.206V84.9091C160.206 84.3949 160.072 83.9943 159.805 83.7074C159.538 83.4176 159.172 83.2727 158.706 83.2727C158.385 83.2727 158.098 83.3423 157.845 83.4815C157.595 83.6207 157.398 83.8239 157.253 84.0909C157.108 84.358 157.036 84.6818 157.036 85.0625ZM165.521 89.1364C164.975 89.1364 164.494 88.9986 164.076 88.723C163.659 88.4446 163.332 88.0526 163.096 87.5469C162.86 87.0384 162.743 86.4375 162.743 85.7443C162.743 85.0568 162.86 84.4602 163.096 83.9545C163.332 83.4489 163.66 83.0582 164.081 82.7827C164.501 82.5071 164.987 82.3693 165.538 82.3693C165.964 82.3693 166.301 82.4403 166.548 82.5824C166.798 82.7216 166.988 82.8807 167.119 83.0597C167.252 83.2358 167.356 83.3807 167.43 83.4943H167.515V80.2727H168.521V89H167.549V87.9943H167.43C167.356 88.1136 167.251 88.2642 167.115 88.446C166.978 88.625 166.784 88.7855 166.531 88.9276C166.278 89.0668 165.941 89.1364 165.521 89.1364ZM165.657 88.233C166.061 88.233 166.402 88.1278 166.68 87.9176C166.958 87.7045 167.17 87.4105 167.315 87.0355C167.46 86.6577 167.532 86.2216 167.532 85.7273C167.532 85.2386 167.461 84.8111 167.319 84.4446C167.177 84.0753 166.967 83.7884 166.689 83.5838C166.41 83.3764 166.066 83.2727 165.657 83.2727C165.231 83.2727 164.876 83.3821 164.592 83.6009C164.311 83.8168 164.099 84.1108 163.957 84.483C163.818 84.8523 163.748 85.267 163.748 85.7273C163.748 86.1932 163.819 86.6165 163.961 86.9972C164.106 87.375 164.319 87.6761 164.6 87.9006C164.885 88.1222 165.237 88.233 165.657 88.233ZM176.622 89.1364C175.991 89.1364 175.447 88.9972 174.99 88.7188C174.535 88.4375 174.184 88.0455 173.937 87.5426C173.693 87.0369 173.571 86.4489 173.571 85.7784C173.571 85.108 173.693 84.517 173.937 84.0057C174.184 83.4915 174.528 83.0909 174.968 82.804C175.412 82.5142 175.929 82.3693 176.52 82.3693C176.86 82.3693 177.197 82.4261 177.529 82.5398C177.862 82.6534 178.164 82.8381 178.437 83.0938C178.71 83.3466 178.927 83.6818 179.089 84.0994C179.251 84.517 179.332 85.0312 179.332 85.642V86.0682H174.287V85.1989H178.309C178.309 84.8295 178.235 84.5 178.088 84.2102C177.943 83.9205 177.735 83.6918 177.466 83.5241C177.199 83.3565 176.883 83.2727 176.52 83.2727C176.119 83.2727 175.772 83.3722 175.48 83.571C175.19 83.767 174.967 84.0227 174.811 84.3381C174.654 84.6534 174.576 84.9915 174.576 85.3523V85.9318C174.576 86.4261 174.662 86.8452 174.832 87.1889C175.005 87.5298 175.245 87.7898 175.552 87.9688C175.859 88.1449 176.216 88.233 176.622 88.233C176.886 88.233 177.125 88.196 177.338 88.1222C177.554 88.0455 177.74 87.9318 177.896 87.7812C178.052 87.6278 178.173 87.4375 178.258 87.2102L179.23 87.483C179.127 87.8125 178.956 88.1023 178.714 88.3523C178.473 88.5994 178.174 88.7926 177.819 88.9318C177.464 89.0682 177.065 89.1364 176.622 89.1364ZM181.868 85.0625V89H180.862V82.4545H181.833V83.4773H181.919C182.072 83.1449 182.305 82.8778 182.618 82.6761C182.93 82.4716 183.333 82.3693 183.828 82.3693C184.271 82.3693 184.659 82.4602 184.991 82.642C185.324 82.821 185.582 83.0938 185.767 83.4602C185.951 83.8239 186.044 84.2841 186.044 84.8409V89H185.038V84.9091C185.038 84.3949 184.904 83.9943 184.637 83.7074C184.37 83.4176 184.004 83.2727 183.538 83.2727C183.217 83.2727 182.93 83.3423 182.677 83.4815C182.427 83.6207 182.23 83.8239 182.085 84.0909C181.94 84.358 181.868 84.6818 181.868 85.0625ZM188.887 85.0625V89H187.881V80.2727H188.887V83.4773H188.972C189.126 83.1392 189.356 82.8707 189.663 82.6719C189.972 82.4702 190.384 82.3693 190.898 82.3693C191.344 82.3693 191.735 82.4588 192.07 82.6378C192.406 82.8139 192.665 83.0852 192.85 83.4517C193.038 83.8153 193.131 84.2784 193.131 84.8409V89H192.126V84.9091C192.126 84.3892 191.991 83.9872 191.721 83.7031C191.454 83.4162 191.083 83.2727 190.609 83.2727C190.279 83.2727 189.984 83.3423 189.722 83.4815C189.464 83.6207 189.259 83.8239 189.109 84.0909C188.961 84.358 188.887 84.6818 188.887 85.0625ZM196.897 89.1534C196.483 89.1534 196.106 89.0753 195.768 88.919C195.43 88.7599 195.162 88.5312 194.963 88.233C194.764 87.9318 194.664 87.5682 194.664 87.142C194.664 86.767 194.738 86.4631 194.886 86.2301C195.034 85.9943 195.231 85.8097 195.478 85.6761C195.725 85.5426 195.998 85.4432 196.297 85.3778C196.598 85.3097 196.9 85.2557 197.204 85.2159C197.602 85.1648 197.924 85.1264 198.172 85.1009C198.422 85.0724 198.603 85.0256 198.717 84.9602C198.833 84.8949 198.892 84.7812 198.892 84.6193V84.5852C198.892 84.1648 198.777 83.8381 198.547 83.6051C198.319 83.3722 197.974 83.2557 197.511 83.2557C197.031 83.2557 196.654 83.3608 196.382 83.571C196.109 83.7812 195.917 84.0057 195.806 84.2443L194.852 83.9034C195.022 83.5057 195.25 83.196 195.534 82.9744C195.821 82.75 196.133 82.5937 196.471 82.5057C196.812 82.4148 197.147 82.3693 197.477 82.3693C197.687 82.3693 197.929 82.3949 198.201 82.446C198.477 82.4943 198.743 82.5952 198.998 82.7486C199.257 82.902 199.471 83.1335 199.642 83.4432C199.812 83.7528 199.897 84.1676 199.897 84.6875V89H198.892V88.1136H198.841C198.772 88.2557 198.659 88.4077 198.5 88.5696C198.341 88.7315 198.129 88.8693 197.865 88.983C197.6 89.0966 197.278 89.1534 196.897 89.1534ZM197.051 88.25C197.449 88.25 197.784 88.1719 198.056 88.0156C198.332 87.8594 198.539 87.6577 198.679 87.4105C198.821 87.1634 198.892 86.9034 198.892 86.6307V85.7102C198.849 85.7614 198.755 85.8082 198.61 85.8509C198.468 85.8906 198.304 85.9261 198.116 85.9574C197.931 85.9858 197.751 86.0114 197.575 86.0341C197.402 86.054 197.261 86.071 197.153 86.0852C196.892 86.1193 196.647 86.1747 196.42 86.2514C196.196 86.3253 196.014 86.4375 195.875 86.5881C195.738 86.7358 195.67 86.9375 195.67 87.1932C195.67 87.5426 195.799 87.8068 196.058 87.9858C196.319 88.1619 196.65 88.25 197.051 88.25ZM202.739 85.0625V89H201.733V82.4545H202.705V83.4773H202.79C202.943 83.1449 203.176 82.8778 203.489 82.6761C203.801 82.4716 204.205 82.3693 204.699 82.3693C205.142 82.3693 205.53 82.4602 205.862 82.642C206.195 82.821 206.453 83.0938 206.638 83.4602C206.822 83.8239 206.915 84.2841 206.915 84.8409V89H205.909V84.9091C205.909 84.3949 205.776 83.9943 205.509 83.7074C205.241 83.4176 204.875 83.2727 204.409 83.2727C204.088 83.2727 203.801 83.3423 203.548 83.4815C203.298 83.6207 203.101 83.8239 202.956 84.0909C202.811 84.358 202.739 84.6818 202.739 85.0625ZM211.412 89.1364C210.798 89.1364 210.27 88.9915 209.826 88.7017C209.383 88.4119 209.042 88.0128 208.804 87.5043C208.565 86.9957 208.446 86.4148 208.446 85.7614C208.446 85.0966 208.568 84.5099 208.812 84.0014C209.059 83.4901 209.403 83.0909 209.843 82.804C210.287 82.5142 210.804 82.3693 211.395 82.3693C211.855 82.3693 212.27 82.4545 212.639 82.625C213.008 82.7955 213.311 83.0341 213.547 83.3409C213.782 83.6477 213.929 84.0057 213.985 84.4148H212.98C212.903 84.1165 212.733 83.8523 212.468 83.6222C212.207 83.3892 211.855 83.2727 211.412 83.2727C211.02 83.2727 210.676 83.375 210.38 83.5795C210.088 83.7812 209.859 84.0668 209.694 84.4361C209.532 84.8026 209.451 85.233 209.451 85.7273C209.451 86.233 209.531 86.6733 209.69 87.0483C209.852 87.4233 210.079 87.7145 210.372 87.9219C210.667 88.1293 211.014 88.233 211.412 88.233C211.673 88.233 211.91 88.1875 212.123 88.0966C212.336 88.0057 212.517 87.875 212.664 87.7045C212.812 87.5341 212.917 87.3295 212.98 87.0909H213.985C213.929 87.4773 213.788 87.8253 213.564 88.1349C213.342 88.4418 213.048 88.6861 212.681 88.8679C212.318 89.0469 211.895 89.1364 211.412 89.1364ZM218.2 89.1364C217.569 89.1364 217.025 88.9972 216.568 88.7188C216.113 88.4375 215.762 88.0455 215.515 87.5426C215.271 87.0369 215.149 86.4489 215.149 85.7784C215.149 85.108 215.271 84.517 215.515 84.0057C215.762 83.4915 216.106 83.0909 216.547 82.804C216.99 82.5142 217.507 82.3693 218.098 82.3693C218.439 82.3693 218.775 82.4261 219.108 82.5398C219.44 82.6534 219.743 82.8381 220.015 83.0938C220.288 83.3466 220.505 83.6818 220.667 84.0994C220.829 84.517 220.91 85.0312 220.91 85.642V86.0682H215.865V85.1989H219.887C219.887 84.8295 219.814 84.5 219.666 84.2102C219.521 83.9205 219.314 83.6918 219.044 83.5241C218.777 83.3565 218.461 83.2727 218.098 83.2727C217.697 83.2727 217.35 83.3722 217.058 83.571C216.768 83.767 216.545 84.0227 216.389 84.3381C216.233 84.6534 216.154 84.9915 216.154 85.3523V85.9318C216.154 86.4261 216.24 86.8452 216.41 87.1889C216.583 87.5298 216.824 87.7898 217.13 87.9688C217.437 88.1449 217.794 88.233 218.2 88.233C218.464 88.233 218.703 88.196 218.916 88.1222C219.132 88.0455 219.318 87.9318 219.474 87.7812C219.63 87.6278 219.751 87.4375 219.836 87.2102L220.808 87.483C220.706 87.8125 220.534 88.1023 220.292 88.3523C220.051 88.5994 219.752 88.7926 219.397 88.9318C219.042 89.0682 218.643 89.1364 218.2 89.1364ZM228.474 89.1364C227.883 89.1364 227.365 88.9957 226.919 88.7145C226.475 88.4332 226.129 88.0398 225.879 87.5341C225.632 87.0284 225.508 86.4375 225.508 85.7614C225.508 85.0795 225.632 84.4844 225.879 83.9759C226.129 83.4673 226.475 83.0724 226.919 82.7912C227.365 82.5099 227.883 82.3693 228.474 82.3693C229.065 82.3693 229.582 82.5099 230.025 82.7912C230.471 83.0724 230.818 83.4673 231.065 83.9759C231.315 84.4844 231.44 85.0795 231.44 85.7614C231.44 86.4375 231.315 87.0284 231.065 87.5341C230.818 88.0398 230.471 88.4332 230.025 88.7145C229.582 88.9957 229.065 89.1364 228.474 89.1364ZM228.474 88.233C228.923 88.233 229.292 88.1179 229.582 87.8878C229.872 87.6577 230.086 87.3551 230.225 86.9801C230.365 86.6051 230.434 86.1989 230.434 85.7614C230.434 85.3239 230.365 84.9162 230.225 84.5384C230.086 84.1605 229.872 83.8551 229.582 83.6222C229.292 83.3892 228.923 83.2727 228.474 83.2727C228.025 83.2727 227.656 83.3892 227.366 83.6222C227.076 83.8551 226.862 84.1605 226.723 84.5384C226.583 84.9162 226.514 85.3239 226.514 85.7614C226.514 86.1989 226.583 86.6051 226.723 86.9801C226.862 87.3551 227.076 87.6577 227.366 87.8878C227.656 88.1179 228.025 88.233 228.474 88.233ZM238.093 82.4545L235.673 89H234.65L232.229 82.4545H233.32L235.127 87.6705H235.195L237.002 82.4545H238.093ZM241.93 89.1364C241.3 89.1364 240.756 88.9972 240.298 88.7188C239.844 88.4375 239.493 88.0455 239.246 87.5426C239.001 87.0369 238.879 86.4489 238.879 85.7784C238.879 85.108 239.001 84.517 239.246 84.0057C239.493 83.4915 239.837 83.0909 240.277 82.804C240.72 82.5142 241.237 82.3693 241.828 82.3693C242.169 82.3693 242.506 82.4261 242.838 82.5398C243.17 82.6534 243.473 82.8381 243.746 83.0938C244.018 83.3466 244.236 83.6818 244.398 84.0994C244.56 84.517 244.641 85.0312 244.641 85.642V86.0682H239.595V85.1989H243.618C243.618 84.8295 243.544 84.5 243.396 84.2102C243.251 83.9205 243.044 83.6918 242.774 83.5241C242.507 83.3565 242.192 83.2727 241.828 83.2727C241.428 83.2727 241.081 83.3722 240.788 83.571C240.499 83.767 240.276 84.0227 240.119 84.3381C239.963 84.6534 239.885 84.9915 239.885 85.3523V85.9318C239.885 86.4261 239.97 86.8452 240.141 87.1889C240.314 87.5298 240.554 87.7898 240.861 87.9688C241.168 88.1449 241.524 88.233 241.93 88.233C242.195 88.233 242.433 88.196 242.646 88.1222C242.862 88.0455 243.048 87.9318 243.205 87.7812C243.361 87.6278 243.482 87.4375 243.567 87.2102L244.538 87.483C244.436 87.8125 244.264 88.1023 244.023 88.3523C243.781 88.5994 243.483 88.7926 243.128 88.9318C242.773 89.0682 242.374 89.1364 241.93 89.1364ZM246.17 89V82.4545H247.142V83.4432H247.21C247.33 83.1193 247.545 82.8565 247.858 82.6548C248.17 82.4531 248.523 82.3523 248.915 82.3523C248.989 82.3523 249.081 82.3537 249.192 82.3565C249.303 82.3594 249.386 82.3636 249.443 82.3693V83.392C249.409 83.3835 249.331 83.3707 249.209 83.3537C249.089 83.3338 248.963 83.3239 248.83 83.3239C248.511 83.3239 248.227 83.3906 247.977 83.5241C247.73 83.6548 247.534 83.8366 247.389 84.0696C247.247 84.2997 247.176 84.5625 247.176 84.858V89H246.17ZM252.561 89.1534C252.147 89.1534 251.77 89.0753 251.432 88.919C251.094 88.7599 250.826 88.5312 250.627 88.233C250.428 87.9318 250.328 87.5682 250.328 87.142C250.328 86.767 250.402 86.4631 250.55 86.2301C250.698 85.9943 250.895 85.8097 251.142 85.6761C251.39 85.5426 251.662 85.4432 251.961 85.3778C252.262 85.3097 252.564 85.2557 252.868 85.2159C253.266 85.1648 253.588 85.1264 253.836 85.1009C254.086 85.0724 254.267 85.0256 254.381 84.9602C254.498 84.8949 254.556 84.7812 254.556 84.6193V84.5852C254.556 84.1648 254.441 83.8381 254.211 83.6051C253.983 83.3722 253.638 83.2557 253.175 83.2557C252.695 83.2557 252.319 83.3608 252.046 83.571C251.773 83.7812 251.581 84.0057 251.471 84.2443L250.516 83.9034C250.686 83.5057 250.914 83.196 251.198 82.9744C251.485 82.75 251.797 82.5937 252.135 82.5057C252.476 82.4148 252.811 82.3693 253.141 82.3693C253.351 82.3693 253.593 82.3949 253.865 82.446C254.141 82.4943 254.407 82.5952 254.662 82.7486C254.921 82.902 255.135 83.1335 255.306 83.4432C255.476 83.7528 255.561 84.1676 255.561 84.6875V89H254.556V88.1136H254.505C254.436 88.2557 254.323 88.4077 254.164 88.5696C254.005 88.7315 253.793 88.8693 253.529 88.983C253.265 89.0966 252.942 89.1534 252.561 89.1534ZM252.715 88.25C253.113 88.25 253.448 88.1719 253.721 88.0156C253.996 87.8594 254.203 87.6577 254.343 87.4105C254.485 87.1634 254.556 86.9034 254.556 86.6307V85.7102C254.513 85.7614 254.419 85.8082 254.275 85.8509C254.132 85.8906 253.968 85.9261 253.78 85.9574C253.596 85.9858 253.415 86.0114 253.239 86.0341C253.066 86.054 252.925 86.071 252.817 86.0852C252.556 86.1193 252.311 86.1747 252.084 86.2514C251.86 86.3253 251.678 86.4375 251.539 86.5881C251.402 86.7358 251.334 86.9375 251.334 87.1932C251.334 87.5426 251.463 87.8068 251.722 87.9858C251.983 88.1619 252.314 88.25 252.715 88.25ZM258.403 80.2727V89H257.397V80.2727H258.403ZM261.25 80.2727V89H260.245V80.2727H261.25ZM111.665 107.136C111.034 107.136 110.49 106.997 110.033 106.719C109.578 106.438 109.227 106.045 108.98 105.543C108.736 105.037 108.614 104.449 108.614 103.778C108.614 103.108 108.736 102.517 108.98 102.006C109.227 101.491 109.571 101.091 110.011 100.804C110.455 100.514 110.972 100.369 111.562 100.369C111.903 100.369 112.24 100.426 112.572 100.54C112.905 100.653 113.207 100.838 113.48 101.094C113.753 101.347 113.97 101.682 114.132 102.099C114.294 102.517 114.375 103.031 114.375 103.642V104.068H109.33V103.199H113.352C113.352 102.83 113.278 102.5 113.131 102.21C112.986 101.92 112.778 101.692 112.509 101.524C112.241 101.357 111.926 101.273 111.562 101.273C111.162 101.273 110.815 101.372 110.523 101.571C110.233 101.767 110.01 102.023 109.854 102.338C109.697 102.653 109.619 102.991 109.619 103.352V103.932C109.619 104.426 109.705 104.845 109.875 105.189C110.048 105.53 110.288 105.79 110.595 105.969C110.902 106.145 111.259 106.233 111.665 106.233C111.929 106.233 112.168 106.196 112.381 106.122C112.597 106.045 112.783 105.932 112.939 105.781C113.095 105.628 113.216 105.437 113.301 105.21L114.273 105.483C114.17 105.812 113.999 106.102 113.757 106.352C113.516 106.599 113.217 106.793 112.862 106.932C112.507 107.068 112.108 107.136 111.665 107.136ZM118.82 100.455V101.307H115.291V100.455H118.82ZM116.348 107V99.5511C116.348 99.1761 116.436 98.8636 116.612 98.6136C116.788 98.3636 117.017 98.1761 117.298 98.0511C117.58 97.9261 117.876 97.8636 118.189 97.8636C118.436 97.8636 118.638 97.8835 118.794 97.9233C118.95 97.9631 119.067 98 119.143 98.0341L118.854 98.9034C118.803 98.8864 118.732 98.8651 118.641 98.8395C118.553 98.8139 118.436 98.8011 118.291 98.8011C117.959 98.8011 117.719 98.8849 117.571 99.0526C117.426 99.2202 117.354 99.4659 117.354 99.7898V107H116.348ZM123.144 100.455V101.307H119.615V100.455H123.144ZM120.672 107V99.5511C120.672 99.1761 120.76 98.8636 120.936 98.6136C121.113 98.3636 121.341 98.1761 121.623 98.0511C121.904 97.9261 122.201 97.8636 122.513 97.8636C122.76 97.8636 122.962 97.8835 123.118 97.9233C123.275 97.9631 123.391 98 123.468 98.0341L123.178 98.9034C123.127 98.8864 123.056 98.8651 122.965 98.8395C122.877 98.8139 122.76 98.8011 122.615 98.8011C122.283 98.8011 122.043 98.8849 121.895 99.0526C121.75 99.2202 121.678 99.4659 121.678 99.7898V107H120.672ZM124.553 107V100.455H125.559V107H124.553ZM125.065 99.3636C124.869 99.3636 124.7 99.2969 124.558 99.1634C124.418 99.0298 124.349 98.8693 124.349 98.6818C124.349 98.4943 124.418 98.3338 124.558 98.2003C124.7 98.0668 124.869 98 125.065 98C125.261 98 125.428 98.0668 125.567 98.2003C125.71 98.3338 125.781 98.4943 125.781 98.6818C125.781 98.8693 125.71 99.0298 125.567 99.1634C125.428 99.2969 125.261 99.3636 125.065 99.3636ZM130.06 107.136C129.446 107.136 128.918 106.991 128.475 106.702C128.032 106.412 127.691 106.013 127.452 105.504C127.213 104.996 127.094 104.415 127.094 103.761C127.094 103.097 127.216 102.51 127.461 102.001C127.708 101.49 128.051 101.091 128.492 100.804C128.935 100.514 129.452 100.369 130.043 100.369C130.503 100.369 130.918 100.455 131.287 100.625C131.657 100.795 131.959 101.034 132.195 101.341C132.431 101.648 132.577 102.006 132.634 102.415H131.628C131.551 102.116 131.381 101.852 131.117 101.622C130.855 101.389 130.503 101.273 130.06 101.273C129.668 101.273 129.324 101.375 129.029 101.58C128.736 101.781 128.507 102.067 128.343 102.436C128.181 102.803 128.1 103.233 128.1 103.727C128.1 104.233 128.179 104.673 128.338 105.048C128.5 105.423 128.728 105.714 129.02 105.922C129.316 106.129 129.662 106.233 130.06 106.233C130.321 106.233 130.559 106.188 130.772 106.097C130.985 106.006 131.165 105.875 131.313 105.705C131.461 105.534 131.566 105.33 131.628 105.091H132.634C132.577 105.477 132.436 105.825 132.212 106.135C131.99 106.442 131.696 106.686 131.33 106.868C130.966 107.047 130.543 107.136 130.06 107.136ZM134.104 107V100.455H135.11V107H134.104ZM134.615 99.3636C134.419 99.3636 134.25 99.2969 134.108 99.1634C133.969 99.0298 133.9 98.8693 133.9 98.6818C133.9 98.4943 133.969 98.3338 134.108 98.2003C134.25 98.0668 134.419 98 134.615 98C134.811 98 134.979 98.0668 135.118 98.2003C135.26 98.3338 135.331 98.4943 135.331 98.6818C135.331 98.8693 135.26 99.0298 135.118 99.1634C134.979 99.2969 134.811 99.3636 134.615 99.3636ZM139.696 107.136C139.065 107.136 138.521 106.997 138.064 106.719C137.609 106.438 137.259 106.045 137.011 105.543C136.767 105.037 136.645 104.449 136.645 103.778C136.645 103.108 136.767 102.517 137.011 102.006C137.259 101.491 137.602 101.091 138.043 100.804C138.486 100.514 139.003 100.369 139.594 100.369C139.935 100.369 140.271 100.426 140.604 100.54C140.936 100.653 141.239 100.838 141.511 101.094C141.784 101.347 142.001 101.682 142.163 102.099C142.325 102.517 142.406 103.031 142.406 103.642V104.068H137.361V103.199H141.384C141.384 102.83 141.31 102.5 141.162 102.21C141.017 101.92 140.81 101.692 140.54 101.524C140.273 101.357 139.957 101.273 139.594 101.273C139.193 101.273 138.847 101.372 138.554 101.571C138.264 101.767 138.041 102.023 137.885 102.338C137.729 102.653 137.651 102.991 137.651 103.352V103.932C137.651 104.426 137.736 104.845 137.906 105.189C138.08 105.53 138.32 105.79 138.626 105.969C138.933 106.145 139.29 106.233 139.696 106.233C139.96 106.233 140.199 106.196 140.412 106.122C140.628 106.045 140.814 105.932 140.97 105.781C141.126 105.628 141.247 105.437 141.332 105.21L142.304 105.483C142.202 105.812 142.03 106.102 141.788 106.352C141.547 106.599 141.249 106.793 140.893 106.932C140.538 107.068 140.139 107.136 139.696 107.136ZM144.942 103.062V107H143.936V100.455H144.908V101.477H144.993C145.146 101.145 145.379 100.878 145.692 100.676C146.004 100.472 146.408 100.369 146.902 100.369C147.345 100.369 147.733 100.46 148.065 100.642C148.398 100.821 148.656 101.094 148.841 101.46C149.026 101.824 149.118 102.284 149.118 102.841V107H148.112V102.909C148.112 102.395 147.979 101.994 147.712 101.707C147.445 101.418 147.078 101.273 146.612 101.273C146.291 101.273 146.004 101.342 145.751 101.482C145.501 101.621 145.304 101.824 145.159 102.091C145.014 102.358 144.942 102.682 144.942 103.062ZM153.615 107.136C153.001 107.136 152.473 106.991 152.029 106.702C151.586 106.412 151.245 106.013 151.007 105.504C150.768 104.996 150.649 104.415 150.649 103.761C150.649 103.097 150.771 102.51 151.015 102.001C151.262 101.49 151.606 101.091 152.047 100.804C152.49 100.514 153.007 100.369 153.598 100.369C154.058 100.369 154.473 100.455 154.842 100.625C155.211 100.795 155.514 101.034 155.75 101.341C155.985 101.648 156.132 102.006 156.189 102.415H155.183C155.106 102.116 154.936 101.852 154.672 101.622C154.41 101.389 154.058 101.273 153.615 101.273C153.223 101.273 152.879 101.375 152.583 101.58C152.291 101.781 152.062 102.067 151.897 102.436C151.735 102.803 151.654 103.233 151.654 103.727C151.654 104.233 151.734 104.673 151.893 105.048C152.055 105.423 152.282 105.714 152.575 105.922C152.87 106.129 153.217 106.233 153.615 106.233C153.876 106.233 154.113 106.188 154.326 106.097C154.539 106.006 154.72 105.875 154.868 105.705C155.015 105.534 155.12 105.33 155.183 105.091H156.189C156.132 105.477 155.991 105.825 155.767 106.135C155.545 106.442 155.251 106.686 154.885 106.868C154.521 107.047 154.098 107.136 153.615 107.136ZM158.306 109.455C158.136 109.455 157.984 109.44 157.85 109.412C157.717 109.386 157.625 109.361 157.574 109.335L157.829 108.449C158.074 108.511 158.289 108.534 158.477 108.517C158.664 108.5 158.831 108.416 158.975 108.266C159.123 108.118 159.258 107.878 159.38 107.545L159.568 107.034L157.147 100.455H158.238L160.045 105.67H160.113L161.92 100.455H163.011L160.233 107.955C160.108 108.293 159.953 108.572 159.768 108.794C159.583 109.018 159.369 109.185 159.125 109.293C158.883 109.401 158.61 109.455 158.306 109.455ZM164.661 107.068C164.451 107.068 164.271 106.993 164.12 106.842C163.969 106.692 163.894 106.511 163.894 106.301C163.894 106.091 163.969 105.911 164.12 105.76C164.271 105.609 164.451 105.534 164.661 105.534C164.871 105.534 165.052 105.609 165.202 105.76C165.353 105.911 165.428 106.091 165.428 106.301C165.428 106.44 165.393 106.568 165.322 106.685C165.254 106.801 165.161 106.895 165.045 106.966C164.931 107.034 164.803 107.068 164.661 107.068Z" fill="#475467"/>
</g>
<defs>
<filter id="filter0_d_45_15618" x="0" y="0" width="367" height="210" filterUnits="userSpaceOnUse" color-interpolation-filters="sRGB">
<feFlood flood-opacity="0" result="BackgroundImageFix"/>
<feColorMatrix in="SourceAlpha" type="matrix" values="0 0 0 0 0 0 0 0 0 0 0 0 0 0 0 0 0 0 127 0" result="hardAlpha"/>
<feMorphology radius="12" operator="erode" in="SourceAlpha" result="effect1_dropShadow_45_15618"/>
<feOffset dy="32"/>
<feGaussianBlur stdDeviation="32"/>
<feColorMatrix type="matrix" values="0 0 0 0 0.0625882 0 0 0 0 0.0926346 0 0 0 0 0.15702 0 0 0 0.14 0"/>
<feBlend mode="normal" in2="BackgroundImageFix" result="effect1_dropShadow_45_15618"/>
<feBlend mode="normal" in="SourceGraphic" in2="effect1_dropShadow_45_15618" result="shape"/>
</filter>
</defs>
</svg>
