<svg width="157" height="55" viewBox="0 0 157 55" fill="none" xmlns="http://www.w3.org/2000/svg">
<path fill-rule="evenodd" clip-rule="evenodd" d="M157 8.92843L126.412 14.384V17.8997C126.656 17.9028 126.897 17.9071 127.131 17.9118C132.409 18.0212 136.207 21.4883 134.378 26.915C133.203 30.4019 129.476 32.0954 126.412 31.0042V43.9983L157 8.92843Z" fill="#99D010"/>
<path d="M125.272 28.6787V20.3662H127.373V28.6787H125.272ZM122.166 25.5732V23.4716H130.479V25.5732H122.166Z" fill="#99D010"/>
<path fill-rule="evenodd" clip-rule="evenodd" d="M15.7453 27.3797C17.888 28.8906 18.9426 32.8641 18.1011 35.3611C16.32 40.6452 8.67947 41.8132 6.36325 35.4081C5.74485 33.6982 5.9549 29.7694 5.95087 27.5813C5.94987 27.0247 5.90423 26.9052 6.08509 26.5049C6.26527 26.3301 8.85127 26.3167 10.8541 26.358C12.3295 26.3885 14.5071 26.5063 15.7456 27.3797H15.7453ZM0.202078 35.4199C0.534597 37.2378 1.27547 38.9652 2.34316 40.4449C4.92815 44.0265 9.22875 45.7488 13.5938 45.3092C17.8954 44.876 22.3618 41.5066 23.7126 37.3838C26.0742 30.1764 21.5652 21.3668 13.9387 20.9404C12.5848 20.8612 6.63906 21.09 6.01362 20.6743C5.7925 20.3431 5.8794 20.5182 5.85088 19.973C5.70022 17.1001 6.08508 11.7556 5.82773 8.97671C4.99525 8.84417 0.749344 8.79651 0.0950426 9.02065C-0.108965 13.2682 0.0789373 18.0064 0.0789373 22.308C0.0789373 26.6915 0.0829612 31.1451 0.202078 35.4202V35.4199Z" fill="#0F3066"/>
<path d="M25.9614 43.9999V11.0566H32.9265V24.6489H47.0657V11.0566H54.0147V43.9999H47.0657V30.3915H32.9265V43.9999H25.9614ZM57.4924 11.0566H66.0822L75.1544 33.1904H75.5405L84.6128 11.0566H93.2025V43.9999H86.4466V22.5578H86.1731L77.6477 43.8391H73.0472L64.5218 22.4774H64.2484V43.9999H57.4924V11.0566ZM114.547 20.531C114.419 19.2334 113.866 18.2254 112.891 17.5069C111.915 16.7884 110.59 16.4292 108.917 16.4292C107.781 16.4292 106.821 16.59 106.038 16.9117C105.255 17.2227 104.655 17.657 104.236 18.2147C103.829 18.7723 103.625 19.405 103.625 20.1128C103.604 20.7026 103.727 21.2173 103.995 21.657C104.274 22.0967 104.655 22.4774 105.137 22.7991C105.62 23.1101 106.177 23.3835 106.81 23.6194C107.443 23.8446 108.118 24.0377 108.837 24.1985L111.797 24.9063C113.234 25.228 114.553 25.657 115.754 26.1931C116.955 26.7293 117.995 27.3888 118.874 28.1717C119.754 28.9545 120.435 29.8767 120.917 30.9384C121.411 32.0001 121.663 33.2172 121.673 34.5898C121.663 36.6059 121.148 38.3539 120.129 39.8338C119.121 41.3029 117.663 42.445 115.754 43.26C113.856 44.0643 111.566 44.4664 108.885 44.4664C106.226 44.4664 103.909 44.0589 101.936 43.2439C99.9738 42.4289 98.4403 41.2225 97.3357 39.6246C96.2419 38.0161 95.6682 36.0268 95.6146 33.6569H102.354C102.429 34.7614 102.746 35.6837 103.303 36.4236C103.872 37.1528 104.628 37.7051 105.572 38.0804C106.526 38.445 107.604 38.6273 108.805 38.6273C109.984 38.6273 111.008 38.4557 111.877 38.1126C112.756 37.7694 113.437 37.2922 113.92 36.681C114.403 36.0697 114.644 35.3673 114.644 34.5738C114.644 33.8338 114.424 33.2118 113.984 32.7078C113.555 32.2038 112.923 31.7749 112.086 31.421C111.261 31.0671 110.247 30.7454 109.046 30.4558L105.459 29.555C102.682 28.8794 100.489 27.8232 98.8799 26.3862C97.2714 24.9492 96.4725 23.0135 96.4832 20.5793C96.4725 18.5846 97.0033 16.842 98.0757 15.3514C99.1588 13.8608 100.644 12.6973 102.531 11.8608C104.419 11.0244 106.564 10.6062 108.966 10.6062C111.411 10.6062 113.545 11.0244 115.368 11.8608C117.201 12.6973 118.628 13.8608 119.646 15.3514C120.665 16.842 121.191 18.5686 121.223 20.531H114.547Z" fill="#0F3066"/>
</svg>
